<?xml version="1.0" encoding="UTF-8"?>
<svg xmlns="http://www.w3.org/2000/svg" xmlns:xlink="http://www.w3.org/1999/xlink" width="311px" height="500px" viewBox="0 0 311 500" version="1.1">
<g id="surface1">
<path style="stroke:none;fill-rule:nonzero;fill:rgb(0%,0%,0%);fill-opacity:1;" d="M 149.867188 48.886719 C 148.234375 49.070312 145.597656 49.566406 143.964844 49.976562 C 142.375 50.429688 139.421875 51.066406 137.425781 51.429688 C 134.65625 51.882812 132.429688 52.746094 127.613281 55.199219 C 124.207031 56.921875 120.03125 58.738281 118.394531 59.285156 C 113.902344 60.644531 113.082031 61.191406 108.996094 65.546875 C 105.816406 68.953125 104.910156 70.359375 102.589844 75.128906 C 101.136719 78.167969 99.140625 82.980469 98.230469 85.796875 C 96.734375 90.246094 96.507812 91.425781 96.507812 95.191406 C 96.507812 102.273438 97.867188 111.71875 99.414062 115.625 C 100.777344 118.980469 101.820312 122.476562 102.773438 126.609375 C 103.363281 129.195312 102.636719 131.054688 101.003906 131.054688 C 99.59375 131.054688 97.324219 133.78125 96.960938 136.003906 C 96.550781 138.457031 97.140625 144.085938 97.730469 143.269531 C 98.050781 142.816406 98.097656 143.089844 97.914062 144.085938 C 97.777344 144.902344 97.867188 145.675781 98.097656 145.8125 C 98.367188 145.949219 98.550781 147.039062 98.59375 148.21875 C 98.59375 150.625 100.09375 156.433594 101.957031 161.335938 C 103.089844 164.378906 103.316406 164.652344 104.5 164.652344 C 105.179688 164.652344 105.863281 164.46875 105.996094 164.242188 C 106.453125 163.515625 109.859375 163.425781 110.128906 164.105469 C 110.539062 165.152344 110.402344 168.285156 109.90625 169.191406 C 109.539062 169.875 109.628906 170.097656 110.359375 170.328125 C 110.855469 170.464844 111.359375 171.054688 111.492188 171.597656 C 111.582031 172.140625 111.902344 173.640625 112.128906 174.957031 C 112.402344 176.226562 113.671875 180.132812 114.988281 183.582031 L 117.351562 189.847656 L 117.535156 198.609375 C 117.667969 206.691406 117.625 207.507812 116.761719 209.277344 C 114.71875 213.546875 113.855469 216.996094 113.808594 221.398438 C 113.761719 226.210938 114.039062 226.984375 118.484375 233.203125 C 119.625 234.835938 120.984375 236.972656 121.484375 237.96875 C 122.664062 240.285156 126.117188 243.6875 129.886719 246.1875 C 131.519531 247.277344 134.382812 249.636719 136.246094 251.40625 C 141.511719 256.355469 142.375 256.945312 143.828125 256.582031 C 145.328125 256.21875 145.917969 255.449219 145.238281 254.675781 C 144.917969 254.269531 144.917969 254.085938 145.28125 254.085938 C 145.554688 254.085938 145.78125 253.859375 145.78125 253.632812 C 145.78125 253.359375 145.597656 253.175781 145.328125 253.175781 C 145.101562 253.175781 144.511719 252.90625 144.101562 252.542969 C 143.644531 252.179688 141.464844 250.40625 139.195312 248.59375 C 131.066406 242.011719 121.800781 231.886719 119.804688 227.390625 C 118.988281 225.53125 118.941406 225.167969 119.625 216.722656 C 120.257812 208.914062 120.757812 201.605469 120.804688 200.242188 C 120.804688 199.972656 121.300781 199.515625 121.9375 199.246094 C 122.890625 198.792969 123.074219 198.835938 123.074219 199.425781 C 123.074219 199.789062 123.300781 199.972656 123.527344 199.835938 C 123.800781 199.699219 123.980469 199.835938 123.980469 200.152344 C 123.980469 200.46875 124.527344 201.015625 125.253906 201.332031 C 125.9375 201.605469 127.207031 202.46875 128.070312 203.238281 C 128.929688 203.964844 129.886719 204.785156 130.203125 205.054688 C 130.523438 205.28125 130.976562 205.511719 131.25 205.511719 C 131.519531 205.511719 131.65625 205.691406 131.519531 205.917969 C 131.386719 206.144531 131.609375 206.417969 132.066406 206.597656 C 132.472656 206.734375 134.472656 207.78125 136.46875 208.871094 C 138.46875 210.003906 140.515625 210.914062 141.058594 210.957031 C 141.558594 210.957031 142.238281 211.230469 142.511719 211.503906 C 142.828125 211.820312 144.964844 212.230469 147.28125 212.410156 C 149.597656 212.59375 153.226562 212.863281 155.410156 213.046875 C 157.636719 213.183594 159.90625 213.136719 160.632812 212.910156 C 163.128906 212.046875 165.308594 213.683594 164.902344 216.042969 C 164.855469 216.359375 165.535156 216.589844 166.261719 216.496094 C 166.445312 216.453125 166.671875 216.859375 166.808594 217.3125 C 166.945312 217.8125 166.855469 218.21875 166.625 218.21875 C 166.351562 218.21875 166.582031 218.675781 167.078125 219.222656 C 167.582031 219.71875 167.898438 220.398438 167.761719 220.675781 C 167.625 220.945312 167.804688 220.808594 168.171875 220.398438 C 168.761719 219.671875 168.851562 219.671875 169.351562 220.765625 C 169.625 221.398438 170.078125 221.761719 170.304688 221.625 C 170.578125 221.488281 170.757812 221.582031 170.757812 221.808594 C 170.757812 222.488281 172.441406 222.441406 172.757812 221.714844 C 172.941406 221.445312 172.941406 221.625 172.847656 222.171875 C 172.710938 222.941406 172.847656 223.125 173.574219 222.988281 C 174.984375 222.71875 175.9375 221.761719 175.210938 221.355469 C 174.847656 221.125 175.027344 220.898438 175.847656 220.71875 C 176.980469 220.445312 179.523438 218.21875 178.707031 218.21875 C 178.480469 218.21875 179.117188 217.539062 180.070312 216.679688 C 181.933594 215 183.703125 214.226562 183.339844 215.226562 C 183.15625 215.632812 183.523438 215.769531 184.382812 215.726562 C 185.566406 215.632812 185.65625 215.769531 185.609375 217.269531 C 185.609375 218.175781 185.292969 219.265625 184.929688 219.671875 C 184.566406 220.128906 184.472656 220.492188 184.703125 220.492188 C 185.292969 220.492188 185.199219 222.441406 184.609375 222.851562 C 184.339844 223.078125 184.339844 223.214844 184.703125 223.214844 C 185.246094 223.214844 185.246094 226.257812 184.703125 227.210938 C 184.472656 227.484375 184.519531 227.753906 184.792969 227.753906 C 185.019531 227.753906 185.15625 228.433594 185.0625 229.207031 C 184.929688 230.296875 184.972656 230.523438 185.292969 230.023438 C 185.65625 229.433594 185.746094 229.433594 185.746094 230.070312 C 185.746094 230.476562 185.382812 231.296875 184.972656 231.886719 C 184.519531 232.476562 183.976562 233.292969 183.703125 233.703125 C 181.792969 236.742188 177.617188 242.234375 174.394531 246.003906 C 171.9375 248.867188 170.125 251.453125 169.351562 253.222656 C 168.171875 255.945312 168.171875 256.039062 168.851562 258.761719 C 169.535156 261.574219 171.667969 265.433594 173.347656 266.886719 C 174.164062 267.660156 174.257812 267.613281 175.074219 266.207031 C 175.527344 265.433594 176.890625 263.390625 178.070312 261.714844 C 179.886719 259.214844 180.160156 258.625 179.613281 258.171875 C 179.117188 257.765625 179.023438 256.855469 179.207031 254.628906 C 179.660156 248.683594 179.886719 247.867188 182.203125 243.824219 C 183.476562 241.601562 184.882812 238.652344 185.382812 237.289062 C 185.835938 235.925781 187.378906 233.113281 188.835938 231.023438 C 194.738281 222.398438 194.558594 222.941406 193.695312 215.953125 C 193.421875 214.089844 193.242188 208.050781 193.285156 202.558594 L 193.285156 192.574219 L 194.738281 189.757812 C 196.101562 187.078125 197.238281 184.21875 198.324219 180.539062 C 198.597656 179.679688 199.460938 176.820312 200.277344 174.183594 C 201.050781 171.550781 201.777344 169.148438 201.867188 168.828125 C 202.003906 168.554688 202.367188 168.285156 202.777344 168.285156 C 203.320312 168.285156 203.414062 168.101562 203.003906 167.421875 C 201.730469 164.96875 203.320312 163.289062 206.773438 163.472656 C 209.40625 163.609375 209.90625 164.199219 208.226562 165.285156 C 207.589844 165.695312 207.09375 166.285156 207.09375 166.558594 C 207.09375 167.648438 209.90625 164.335938 211.816406 161.019531 C 216.128906 153.527344 218.761719 143.679688 218.21875 137.183594 C 217.671875 131.011719 215.582031 127.742188 212.085938 127.742188 C 210.949219 127.742188 210.085938 127.515625 209.953125 127.199219 C 209.863281 126.878906 210.269531 124.476562 210.90625 121.886719 C 212.175781 116.710938 212.769531 112.898438 213.222656 106.769531 C 213.40625 104.5 214.039062 101.140625 214.628906 99.234375 C 218.308594 87.476562 214.628906 67.5 207.316406 59.417969 C 203.910156 55.652344 198.417969 53.378906 191.195312 52.746094 C 189.0625 52.5625 185.292969 52.019531 182.796875 51.519531 C 174.890625 49.929688 170.261719 49.339844 164.175781 49.113281 C 160.949219 48.980469 157.046875 48.796875 155.546875 48.75 C 154.046875 48.660156 151.503906 48.75 149.867188 48.886719 Z M 178.117188 94.285156 C 178.933594 95.101562 179.390625 96.007812 179.296875 96.464844 C 179.117188 97.101562 179.34375 97.234375 180.25 97.191406 C 180.929688 97.191406 181.703125 97.507812 182.023438 98.007812 C 182.339844 98.460938 182.929688 98.824219 183.292969 98.824219 C 184.066406 98.824219 184.113281 99.367188 183.386719 100.09375 C 182.976562 100.503906 182.976562 100.777344 183.386719 101.1875 C 183.703125 101.503906 183.746094 101.957031 183.476562 102.503906 C 183.203125 102.957031 183.203125 103.410156 183.429688 103.546875 C 183.792969 103.820312 183.746094 105.316406 183.292969 107.90625 C 182.703125 110.945312 182.382812 111.535156 181.160156 111.535156 C 180.203125 111.535156 179.980469 112.261719 180.886719 112.578125 C 181.160156 112.714844 180.976562 112.855469 180.433594 112.855469 C 179.84375 112.898438 179.390625 112.625 179.34375 112.308594 C 179.34375 112.035156 179.160156 112.21875 178.933594 112.761719 C 178.570312 113.625 178.160156 113.804688 176.390625 113.804688 C 175.027344 113.804688 173.9375 114.078125 173.390625 114.578125 C 172.894531 114.988281 172.574219 115.078125 172.574219 114.804688 C 172.574219 113.988281 170.667969 114.171875 169.441406 115.03125 C 168.808594 115.441406 168.488281 115.53125 168.671875 115.257812 C 168.808594 114.988281 168.714844 114.621094 168.441406 114.484375 C 167.941406 114.171875 166.351562 116.03125 166.582031 116.664062 C 166.625 116.894531 166.21875 116.710938 165.671875 116.347656 C 164.402344 115.441406 163.949219 115.441406 163.949219 116.304688 C 163.949219 116.664062 163.582031 116.984375 163.175781 116.9375 C 162.675781 116.9375 162.585938 116.800781 162.945312 116.664062 C 163.222656 116.574219 163.492188 116.210938 163.492188 115.9375 C 163.492188 115.625 163.265625 115.714844 162.855469 116.074219 C 162.21875 116.800781 161.449219 119.890625 162.039062 119.527344 C 162.21875 119.433594 162.21875 120.886719 162.039062 122.792969 C 161.449219 128.105469 161.359375 128.832031 160.632812 131.464844 C 160.175781 133.28125 160.132812 134.414062 160.449219 135.550781 C 161.132812 138.046875 161.085938 144.8125 160.40625 145.039062 C 159.585938 145.3125 159.722656 145.8125 161.492188 148.671875 C 162.902344 150.851562 163.582031 151.484375 166.035156 152.621094 C 167.625 153.347656 169.035156 154.300781 169.125 154.664062 C 169.261719 155.027344 169.261719 154.300781 169.125 153.074219 C 168.988281 151.804688 168.671875 150.488281 168.488281 150.078125 C 167.851562 148.945312 167.445312 145.132812 167.941406 145.132812 C 168.171875 145.132812 168.261719 144.628906 168.171875 143.996094 C 167.851562 142.542969 168.988281 141.453125 170.621094 141.589844 C 171.347656 141.636719 172.121094 141.542969 172.394531 141.363281 C 172.664062 141.226562 173.574219 140.953125 174.4375 140.816406 C 176.300781 140.5 176.617188 140.226562 175.753906 139.683594 C 175.390625 139.410156 175.210938 139.226562 175.4375 139.226562 C 178.027344 139.183594 190.015625 136.640625 188.289062 136.550781 C 188.015625 136.503906 188.0625 136.277344 188.382812 135.960938 C 188.699219 135.644531 188.925781 135.050781 188.925781 134.597656 C 188.925781 133.464844 190.558594 133.554688 191.195312 134.6875 C 191.46875 135.1875 191.511719 135.597656 191.285156 135.597656 C 191.0625 135.597656 190.878906 135.914062 190.878906 136.277344 C 190.878906 136.640625 191.0625 136.824219 191.285156 136.6875 C 191.46875 136.550781 191.652344 136.960938 191.652344 137.597656 C 191.652344 138.183594 191.832031 138.773438 192.011719 138.867188 C 192.421875 139.003906 194.78125 143.996094 194.78125 144.539062 C 194.738281 144.675781 194.917969 144.949219 195.148438 145.085938 C 195.964844 145.675781 196.691406 148.851562 196.648438 151.574219 C 196.554688 154.34375 194.917969 161.019531 194.328125 161.019531 C 194.148438 161.019531 193.648438 162.019531 193.242188 163.289062 C 192.828125 164.515625 192.058594 165.878906 191.511719 166.242188 C 190.96875 166.648438 190.558594 167.058594 190.648438 167.148438 C 191.421875 168.375 186.699219 169.101562 185.0625 168.011719 C 184.15625 167.421875 184.019531 167.511719 183.292969 169.011719 L 182.519531 170.691406 L 181.296875 169.554688 C 179.117188 167.558594 172.941406 163.789062 170.578125 163.019531 C 169.304688 162.609375 168.082031 162.109375 167.851562 161.882812 C 167.582031 161.65625 166.898438 161.472656 166.261719 161.429688 C 165.171875 161.429688 165.128906 161.382812 165.945312 160.882812 C 166.398438 160.566406 167.308594 159.929688 167.941406 159.429688 L 169.125 158.566406 L 167.761719 158.25 C 167.035156 158.070312 165.492188 157.570312 164.308594 157.113281 C 162.722656 156.523438 161.859375 156.386719 160.949219 156.707031 C 158.953125 157.433594 159.042969 158.296875 161.175781 158.296875 C 163.402344 158.296875 163.855469 158.886719 162.632812 160.203125 C 162.085938 160.746094 161.675781 161.519531 161.675781 161.882812 C 161.675781 162.292969 161.132812 163.109375 160.542969 163.699219 C 159.90625 164.289062 159.40625 165.015625 159.40625 165.285156 C 159.40625 166.285156 157.40625 167.601562 156.136719 167.464844 C 155.410156 167.375 154.863281 167.148438 154.863281 166.921875 C 154.863281 166.148438 152.5 164.152344 151.867188 164.378906 C 151.503906 164.515625 151.230469 164.335938 151.230469 164.015625 C 151.230469 163.199219 150.277344 162.835938 148.6875 163.109375 C 147.960938 163.199219 146.734375 163.378906 145.917969 163.515625 C 145.144531 163.609375 143.875 164.015625 143.148438 164.378906 C 142.421875 164.742188 141.285156 165.152344 140.695312 165.285156 C 137.652344 165.832031 133.925781 169.28125 132.65625 172.777344 C 131.113281 177 131.386719 177.589844 134.746094 177.410156 C 136.289062 177.363281 137.105469 177.636719 139.015625 178.953125 C 142.328125 181.222656 142.648438 181.128906 143.148438 177.589844 C 143.238281 177.042969 143.691406 176.636719 144.375 176.546875 C 145.238281 176.410156 145.375 176.546875 145.144531 177.179688 C 144.871094 177.863281 144.964844 177.863281 145.644531 177.320312 C 146.097656 176.953125 146.691406 176.410156 146.914062 176.09375 C 147.417969 175.457031 149.960938 175.230469 157.773438 175 C 163.222656 174.867188 163.222656 174.867188 163.492188 175.957031 C 163.628906 176.59375 163.992188 177.136719 164.308594 177.273438 C 164.992188 177.5 165.035156 176.820312 164.308594 176.09375 C 163.359375 175.136719 164.445312 174.59375 166.21875 175.09375 C 167.078125 175.367188 168.351562 175.546875 169.035156 175.546875 C 169.804688 175.546875 170.304688 175.773438 170.304688 176.183594 C 170.304688 177.136719 168.898438 177.453125 168.035156 176.683594 C 167.035156 175.773438 166.582031 175.820312 166.765625 176.773438 C 166.855469 177.320312 166.445312 177.636719 165.402344 177.863281 C 163.082031 178.316406 162.675781 178.953125 163.855469 180.222656 C 164.402344 180.8125 164.855469 181.675781 164.855469 182.175781 C 164.855469 183.265625 163.492188 184.535156 162.449219 184.355469 C 162.039062 184.308594 161.675781 184.398438 161.675781 184.582031 C 161.675781 184.761719 161.402344 184.945312 161.132812 184.945312 C 160.8125 184.945312 158.996094 185.125 157.136719 185.351562 C 155.273438 185.535156 153.183594 185.71875 152.5 185.71875 C 151.773438 185.671875 151.230469 185.898438 151.230469 186.214844 C 151.230469 186.488281 150.957031 186.761719 150.6875 186.804688 C 149.730469 186.851562 146.644531 187.714844 146.417969 187.941406 C 146.28125 188.078125 147.371094 188.757812 148.824219 189.4375 C 151.414062 190.664062 151.683594 190.710938 160.085938 190.800781 C 164.855469 190.890625 168.945312 190.9375 169.261719 190.9375 C 169.578125 190.984375 169.714844 191.300781 169.535156 191.664062 C 169.398438 192.117188 169.535156 192.34375 169.894531 192.253906 C 170.351562 192.160156 170.53125 192.617188 170.53125 193.84375 C 170.53125 194.75 170.667969 195.519531 170.851562 195.519531 C 171.03125 195.519531 170.851562 195.933594 170.394531 196.476562 C 169.578125 197.472656 167.671875 198.472656 166.945312 198.289062 C 166.71875 198.246094 165.992188 198.382812 165.355469 198.65625 C 164.71875 198.882812 162.3125 199.199219 160.042969 199.335938 C 156.089844 199.609375 153.410156 200.199219 152.320312 201.015625 C 152.046875 201.242188 151.730469 201.332031 151.59375 201.195312 C 151.503906 201.058594 150.777344 201.152344 149.960938 201.378906 C 149.1875 201.605469 148.503906 201.652344 148.414062 201.425781 C 148.324219 201.195312 147.960938 200.96875 147.597656 200.878906 C 147.234375 200.789062 146.734375 200.515625 146.554688 200.289062 C 146.324219 200.019531 146.28125 200.5625 146.417969 201.425781 C 146.644531 202.742188 146.597656 202.832031 146.234375 201.96875 C 146.007812 201.425781 145.691406 200.96875 145.554688 200.96875 C 145.375 200.96875 145.417969 201.425781 145.554688 201.96875 C 145.828125 202.878906 145.828125 202.921875 145.28125 202.285156 C 144.417969 201.289062 143.285156 200.925781 142.738281 201.46875 C 142.421875 201.785156 141.921875 201.46875 141.195312 200.652344 C 140.515625 199.878906 139.695312 199.382812 138.96875 199.425781 C 138.289062 199.425781 137.289062 198.882812 136.46875 198.066406 C 135.746094 197.292969 134.972656 196.703125 134.792969 196.792969 C 134.5625 196.839844 134.425781 196.703125 134.425781 196.429688 C 134.425781 196.066406 132.472656 193.753906 129.613281 190.710938 C 129.113281 190.164062 128.75 189.394531 128.796875 188.984375 C 128.839844 188.574219 128.707031 188.351562 128.480469 188.53125 C 128.25 188.667969 127.84375 188.214844 127.613281 187.578125 C 127.207031 186.53125 127.023438 186.441406 126.480469 186.898438 C 125.890625 187.394531 125.84375 187.351562 126.027344 186.761719 C 126.207031 186.398438 126.117188 185.941406 125.84375 185.761719 C 125.570312 185.625 125.34375 185.671875 125.34375 185.898438 C 125.34375 186.171875 124.9375 186.261719 124.4375 186.125 C 123.9375 185.988281 123.527344 185.625 123.527344 185.308594 C 123.527344 184.992188 122.617188 183.898438 121.484375 182.902344 C 120.351562 181.902344 119.441406 180.859375 119.441406 180.585938 C 119.441406 180.269531 119.257812 180.179688 118.988281 180.3125 C 118.714844 180.449219 118.53125 180.132812 118.53125 179.542969 C 118.53125 178.726562 118.441406 178.632812 118.125 179.132812 C 117.757812 179.679688 117.625 179.542969 117.398438 178.589844 C 117.214844 177.90625 116.898438 177.363281 116.714844 177.363281 C 116.535156 177.363281 116.21875 176.683594 116.082031 175.863281 C 115.898438 175.09375 115.714844 174.09375 115.671875 173.730469 C 115.582031 173.367188 115.308594 172.324219 115.035156 171.460938 C 114.765625 170.601562 114.535156 167.421875 114.535156 164.425781 C 114.535156 161.429688 114.308594 158.113281 114.039062 157.023438 C 113.035156 153.4375 112.855469 149.398438 113.3125 143.089844 C 113.492188 141.089844 113.625 139.003906 113.671875 138.410156 C 113.71875 137.867188 113.902344 137.414062 114.039062 137.414062 C 114.21875 137.414062 114.445312 136.367188 114.628906 135.140625 C 114.808594 133.871094 115.078125 132.875 115.261719 132.875 C 115.445312 132.875 115.851562 132.238281 116.125 131.464844 C 116.441406 130.695312 116.898438 130.195312 117.125 130.375 C 117.398438 130.511719 117.625 130.421875 117.625 130.195312 C 117.625 129.289062 118.761719 129.695312 120.53125 131.285156 C 121.484375 132.148438 122.664062 132.875 123.121094 132.875 C 123.621094 132.875 124.207031 133.375 124.484375 133.960938 C 124.980469 135.050781 127.070312 136.324219 127.570312 135.824219 C 127.707031 135.6875 127.613281 135.414062 127.34375 135.234375 C 127.070312 135.050781 126.480469 134.191406 126.027344 133.328125 L 125.210938 131.78125 L 127.207031 130.058594 C 128.296875 129.105469 129.433594 128.332031 129.65625 128.332031 C 129.933594 128.332031 130.160156 128.96875 130.203125 129.785156 C 130.476562 133.28125 134.792969 134.828125 137.015625 132.191406 C 137.921875 131.148438 138.105469 130.558594 137.921875 129.195312 L 137.699219 127.558594 L 139.0625 128.0625 C 139.832031 128.332031 141.105469 129.332031 141.964844 130.285156 C 142.828125 131.195312 143.507812 131.738281 143.507812 131.464844 C 143.507812 131.195312 143.828125 131.054688 144.144531 131.195312 C 144.554688 131.375 144.917969 131.101562 145.101562 130.558594 C 145.28125 130.058594 145.734375 129.738281 146.144531 129.785156 C 146.734375 129.878906 146.960938 129.511719 147.050781 127.925781 C 147.144531 126.878906 147.007812 125.382812 146.734375 124.703125 C 146.507812 123.976562 146.417969 123.292969 146.597656 123.160156 C 147.234375 122.476562 147.1875 118.890625 146.507812 118.210938 C 146.144531 117.847656 145.964844 117.390625 146.144531 117.210938 C 146.324219 116.984375 146.097656 116.984375 145.691406 117.121094 C 145.238281 117.253906 144.78125 117.210938 144.648438 116.984375 C 144.511719 116.800781 144.648438 116.527344 144.964844 116.4375 C 145.238281 116.347656 144.28125 115.984375 142.78125 115.667969 C 141.328125 115.347656 139.742188 114.898438 139.332031 114.667969 C 138.878906 114.394531 138.515625 114.394531 138.515625 114.621094 C 138.515625 114.851562 137.832031 114.941406 137.0625 114.851562 C 136.015625 114.714844 135.746094 114.757812 136.199219 115.078125 C 136.605469 115.394531 135.789062 115.484375 133.609375 115.441406 C 131.882812 115.441406 130.660156 115.257812 130.929688 115.078125 C 132.246094 114.261719 124.980469 113.035156 123.527344 113.804688 C 122.753906 114.214844 118.898438 114.484375 116.851562 114.304688 C 116.535156 114.304688 116.261719 113.851562 116.261719 113.351562 C 116.261719 112.855469 116.082031 112.441406 115.808594 112.441406 C 115.21875 112.441406 115.492188 110.765625 116.171875 110.085938 C 116.488281 109.765625 116.714844 109.265625 116.714844 108.949219 C 116.714844 108.632812 116.941406 108.355469 117.214844 108.355469 C 117.488281 108.355469 117.578125 107.949219 117.398438 107.449219 C 117.214844 106.90625 117.304688 106.542969 117.625 106.542969 C 117.894531 106.542969 117.988281 106.3125 117.804688 106 C 117.578125 105.679688 117.714844 105.585938 118.125 105.726562 C 118.484375 105.863281 119.167969 105.726562 119.667969 105.363281 C 120.304688 104.90625 120.351562 104.726562 119.847656 104.726562 C 119.488281 104.726562 120.03125 103.957031 121.03125 103.046875 C 122.027344 102.136719 122.800781 101.277344 122.753906 101.09375 C 122.710938 100.914062 124.9375 100.777344 127.75 100.730469 C 130.566406 100.683594 133.339844 100.550781 133.972656 100.367188 C 134.609375 100.230469 135.835938 100.050781 136.699219 99.914062 C 137.5625 99.824219 138.878906 99.640625 139.558594 99.503906 C 140.46875 99.367188 140.738281 99.460938 140.515625 99.871094 C 140.285156 100.230469 140.421875 100.1875 140.921875 99.777344 C 141.421875 99.367188 143.285156 99.097656 146.417969 99.007812 C 149.003906 98.914062 151.457031 98.6875 151.867188 98.550781 C 152.277344 98.371094 152.777344 98.371094 152.914062 98.550781 C 153.09375 98.6875 153.503906 98.550781 153.910156 98.1875 C 154.320312 97.828125 155.546875 97.460938 156.679688 97.324219 C 160.996094 96.871094 162.175781 96.644531 162.722656 96.191406 C 163.855469 95.238281 167.761719 94.195312 169.671875 94.375 C 170.714844 94.421875 171.484375 94.375 171.394531 94.238281 C 171.121094 93.742188 172.394531 93.421875 173.390625 93.695312 C 173.894531 93.832031 174.710938 93.695312 175.164062 93.421875 C 176.390625 92.742188 176.617188 92.785156 178.117188 94.285156 Z M 122.164062 118.347656 C 122.164062 118.570312 122.074219 118.800781 121.984375 118.800781 C 121.847656 118.800781 121.621094 118.570312 121.484375 118.347656 C 121.347656 118.074219 121.4375 117.890625 121.667969 117.890625 C 121.9375 117.890625 122.164062 118.074219 122.164062 118.347656 Z M 124.707031 119.480469 C 125.433594 119.84375 126.527344 120.160156 127.160156 120.160156 C 127.796875 120.207031 128.929688 120.480469 129.65625 120.796875 L 131.019531 121.386719 L 129.886719 121.886719 C 129.25 122.160156 127.75 122.75 126.527344 123.160156 C 125.300781 123.613281 123.300781 124.746094 122.121094 125.699219 C 120.894531 126.65625 119.714844 127.425781 119.488281 127.425781 C 119.257812 127.425781 119.078125 126.878906 119.121094 126.152344 C 119.121094 125.472656 118.988281 124.566406 118.761719 124.109375 C 118.53125 123.519531 118.578125 123.382812 119.167969 123.613281 C 119.578125 123.75 119.894531 123.703125 119.894531 123.429688 C 119.894531 123.160156 119.625 122.839844 119.347656 122.75 C 119.03125 122.613281 119.257812 122.476562 119.894531 122.433594 C 120.941406 122.386719 120.941406 122.339844 120.121094 121.976562 C 119.304688 121.613281 119.304688 121.570312 120.351562 121.523438 L 121.484375 121.523438 L 120.351562 120.613281 L 119.210938 119.707031 L 120.941406 119.707031 C 121.847656 119.707031 122.617188 119.480469 122.617188 119.253906 C 122.617188 118.617188 123.210938 118.664062 124.707031 119.480469 Z M 129.613281 125.246094 C 129.386719 125.609375 129.703125 125.65625 130.703125 125.472656 C 131.566406 125.292969 132.15625 125.382812 132.15625 125.609375 C 132.15625 125.882812 131.746094 126.0625 131.25 126.0625 C 130.703125 126.0625 129.796875 126.382812 129.207031 126.789062 C 127.75 127.742188 125.390625 127.289062 126.296875 126.246094 C 126.75 125.65625 126.933594 125.699219 127.796875 126.382812 C 128.339844 126.835938 128.480469 126.878906 128.203125 126.519531 C 127.433594 125.65625 127.476562 125.246094 128.433594 125.019531 C 129.796875 124.65625 129.933594 124.703125 129.613281 125.246094 Z M 140.332031 126.746094 C 140.875 127.335938 140.695312 127.335938 138.832031 126.699219 C 137.652344 126.289062 136.699219 125.882812 136.699219 125.746094 C 136.699219 125.246094 139.652344 126.109375 140.332031 126.746094 Z M 173.484375 129.511719 C 173.484375 130.785156 173.847656 131.511719 175.027344 132.691406 C 176.574219 134.234375 176.574219 134.234375 175.4375 134.234375 C 174.800781 134.234375 173.574219 133.917969 172.710938 133.464844 C 171.210938 132.785156 171.121094 132.601562 171.347656 130.964844 C 171.757812 127.878906 173.484375 126.699219 173.484375 129.511719 Z M 185.109375 131.285156 C 185.019531 131.511719 184.703125 131.691406 184.429688 131.601562 C 184.15625 131.554688 183.929688 131.828125 183.929688 132.191406 C 183.929688 132.554688 183.386719 133.191406 182.703125 133.644531 C 181.976562 134.101562 181.25 134.6875 181.066406 135.007812 C 180.570312 135.824219 178.160156 135.734375 177.84375 134.917969 C 177.707031 134.460938 178.117188 134.007812 179.117188 133.554688 C 180.75 132.785156 181.65625 131.285156 181.65625 129.421875 L 181.65625 128.285156 L 183.476562 129.558594 C 184.472656 130.238281 185.199219 131.011719 185.109375 131.285156 Z M 132.609375 128.96875 C 132.609375 129.105469 132.429688 129.332031 132.15625 129.46875 C 131.929688 129.601562 131.703125 129.511719 131.703125 129.289062 C 131.703125 129.011719 131.929688 128.789062 132.15625 128.789062 C 132.429688 128.789062 132.609375 128.878906 132.609375 128.96875 Z M 136.246094 129.242188 C 136.246094 129.46875 136.0625 129.695312 135.789062 129.695312 C 135.5625 129.695312 135.335938 129.46875 135.335938 129.242188 C 135.335938 128.96875 135.5625 128.789062 135.789062 128.789062 C 136.0625 128.789062 136.246094 128.96875 136.246094 129.242188 Z M 175.300781 129.195312 C 175.300781 129.46875 175.121094 129.785156 174.847656 129.921875 C 174.621094 130.058594 174.394531 129.878906 174.394531 129.511719 C 174.394531 129.105469 174.621094 128.789062 174.847656 128.789062 C 175.121094 128.789062 175.300781 128.96875 175.300781 129.195312 Z M 178.933594 129.511719 C 178.933594 129.878906 178.753906 130.058594 178.480469 129.921875 C 178.25 129.785156 178.027344 129.46875 178.027344 129.195312 C 178.027344 128.96875 178.25 128.789062 178.480469 128.789062 C 178.753906 128.789062 178.933594 129.105469 178.933594 129.511719 Z M 209.359375 133.054688 C 207.910156 135.414062 205.730469 136.824219 205.730469 135.414062 C 205.730469 134.6875 209.769531 130.832031 210.132812 131.238281 C 210.269531 131.375 209.90625 132.191406 209.359375 133.054688 Z M 167.761719 133.097656 C 167.898438 133.464844 167.804688 133.78125 167.582031 133.78125 C 167.308594 133.78125 167.125 133.464844 167.125 133.097656 C 167.125 132.738281 167.214844 132.417969 167.308594 132.417969 C 167.398438 132.417969 167.582031 132.738281 167.761719 133.097656 Z M 168.945312 132.875 C 168.945312 133.097656 168.851562 133.328125 168.761719 133.328125 C 168.625 133.328125 168.398438 133.097656 168.261719 132.875 C 168.125 132.601562 168.21875 132.417969 168.441406 132.417969 C 168.714844 132.417969 168.945312 132.601562 168.945312 132.875 Z M 212.496094 134.101562 C 212.769531 135.050781 212.996094 136.414062 212.996094 137.183594 C 212.996094 137.910156 213.40625 139.863281 213.902344 141.40625 C 215.671875 147.082031 214.722656 152.394531 211.585938 154.03125 C 209.589844 155.027344 209.453125 154.480469 211.316406 152.894531 C 214.21875 150.304688 214.722656 144.949219 212.3125 142.40625 C 211.632812 141.726562 210.179688 140.910156 209.089844 140.589844 C 207.953125 140.273438 207 139.863281 206.910156 139.730469 C 206.726562 139.5 209.042969 134.507812 209.953125 132.964844 C 210.722656 131.78125 212.042969 132.371094 212.496094 134.101562 Z M 103.136719 134.144531 C 103.726562 134.597656 104.863281 135.277344 105.589844 135.597656 C 107.679688 136.503906 108.675781 138.09375 108.3125 139.953125 C 108.175781 140.816406 107.722656 141.679688 107.359375 141.816406 C 107.042969 141.953125 106.722656 142.316406 106.722656 142.585938 C 106.722656 142.90625 105.589844 143.496094 104.183594 143.949219 C 101.367188 144.8125 100.820312 145.675781 100.820312 148.945312 C 100.820312 152.347656 101.367188 153.847656 103.179688 155.664062 C 104.726562 157.207031 105.453125 158.75 104.589844 158.75 C 103.546875 158.75 100.820312 155.480469 100.320312 153.710938 C 99.640625 151.214844 99.640625 146.855469 100.367188 144.269531 C 100.640625 143.132812 100.867188 141.316406 100.867188 140.183594 C 100.867188 139.046875 101.183594 137.457031 101.59375 136.640625 C 102.230469 135.414062 102.273438 135.097656 101.730469 134.460938 C 101.320312 134.007812 100.730469 133.824219 100.050781 134.007812 C 99.460938 134.144531 99.003906 134.054688 99.003906 133.78125 C 99.003906 133.007812 102 133.28125 103.136719 134.144531 Z M 167.035156 134.917969 C 166.898438 135.050781 166.625 134.828125 166.488281 134.371094 C 166.21875 133.734375 166.261719 133.691406 166.71875 134.101562 C 167.035156 134.414062 167.171875 134.78125 167.035156 134.917969 Z M 168.988281 135.644531 C 170.03125 136.6875 169.761719 137.414062 168.578125 136.6875 C 167.851562 136.1875 167.214844 134.6875 167.761719 134.6875 C 167.898438 134.6875 168.441406 135.097656 168.988281 135.644531 Z M 215.128906 139.09375 C 214.945312 139.863281 214.945312 139.863281 214.585938 139.09375 C 214.402344 138.683594 214.402344 137.957031 214.585938 137.503906 C 214.945312 136.777344 214.945312 136.777344 215.128906 137.503906 C 215.265625 137.957031 215.265625 138.683594 215.128906 139.09375 Z M 208.273438 145.449219 C 209.632812 148.492188 209.769531 149.125 209.316406 150.167969 C 208.679688 151.804688 207.546875 152.804688 205.820312 153.257812 C 204.636719 153.617188 204.367188 153.527344 204.140625 152.847656 C 204.003906 152.347656 204.09375 151.574219 204.320312 151.078125 C 204.59375 150.578125 204.820312 148.492188 204.820312 146.355469 C 204.820312 144.269531 204.957031 142.40625 205.136719 142.269531 C 205.953125 141.40625 206.816406 142.269531 208.273438 145.449219 Z M 109.179688 149.945312 C 109.3125 151.125 109.269531 152.300781 109.042969 152.578125 C 108.765625 152.894531 108.765625 153.394531 108.949219 153.710938 C 109.402344 154.390625 109.085938 156.027344 108.542969 156.027344 C 108.3125 156.027344 107.632812 155.390625 106.996094 154.621094 C 105.542969 152.894531 105.453125 150.714844 106.769531 149.035156 C 108.132812 147.265625 108.8125 147.535156 109.179688 149.945312 Z M 207.09375 157.160156 C 207.09375 157.839844 205.5 158.070312 204.183594 157.570312 C 203.050781 157.113281 203.820312 156.480469 205.546875 156.480469 C 206.636719 156.480469 207.09375 156.707031 207.09375 157.160156 Z M 109.132812 159.929688 C 109.3125 161.019531 109.222656 161.792969 108.765625 162.199219 C 107.90625 163.109375 107.496094 162.972656 107.769531 161.882812 C 107.949219 161.199219 107.722656 160.882812 106.953125 160.566406 C 104.726562 159.703125 105 158.296875 107.359375 158.296875 C 108.765625 158.296875 108.902344 158.429688 109.132812 159.929688 Z M 154.136719 169.460938 C 156.226562 170.144531 156.679688 170.144531 158.8125 169.507812 C 160.765625 168.917969 161.492188 168.917969 163.359375 169.371094 L 165.535156 169.964844 L 162.902344 170.1875 C 161.402344 170.328125 160.085938 170.601562 159.953125 170.824219 C 159.769531 171.054688 158.5 171.28125 157.136719 171.371094 C 155.773438 171.460938 154.546875 171.734375 154.367188 172.007812 C 154.183594 172.277344 152.777344 172.414062 150.957031 172.371094 C 143.644531 172.097656 142.101562 172.1875 141.648438 172.867188 C 141.421875 173.234375 141.238281 173.277344 141.238281 172.957031 C 141.238281 172.277344 143.828125 170.097656 144.78125 170.054688 C 146.554688 169.917969 148.367188 169.644531 149.640625 169.238281 C 151.550781 168.648438 151.550781 168.648438 154.136719 169.460938 Z M 162.128906 171.234375 C 162.128906 171.597656 161.949219 171.917969 161.675781 171.917969 C 161.449219 171.917969 161.359375 171.597656 161.492188 171.234375 C 161.675781 170.871094 161.859375 170.554688 161.949219 170.554688 C 162.039062 170.554688 162.128906 170.871094 162.128906 171.234375 Z M 160.449219 172.230469 C 160.132812 172.324219 159.585938 172.324219 159.316406 172.230469 C 158.996094 172.097656 159.226562 172.007812 159.859375 172.007812 C 160.496094 172.007812 160.722656 172.097656 160.449219 172.230469 Z M 140.695312 173.367188 C 140.421875 174.183594 139.421875 174.320312 139.421875 173.546875 C 139.421875 173.140625 139.742188 172.824219 140.148438 172.824219 C 140.558594 172.824219 140.785156 173.050781 140.695312 173.367188 Z M 170.167969 219.445312 C 169.988281 219.582031 170.078125 219.992188 170.351562 220.308594 C 170.621094 220.628906 170.621094 220.945312 170.394531 221.125 C 170.125 221.261719 169.804688 221.082031 169.671875 220.675781 C 169.398438 219.949219 169.671875 219.128906 170.167969 219.128906 C 170.351562 219.128906 170.304688 219.265625 170.167969 219.445312 Z M 174.847656 222.035156 C 174.847656 222.125 174.53125 222.351562 174.121094 222.488281 C 173.757812 222.625 173.574219 222.578125 173.710938 222.304688 C 173.984375 221.851562 174.847656 221.671875 174.847656 222.035156 Z M 174.847656 222.035156 "/>
<path style=" stroke:none;fill-rule:nonzero;fill:rgb(0%,0%,0%);fill-opacity:1;" d="M 140.921875 133.375 C 140.105469 133.597656 139.421875 133.960938 139.421875 134.191406 C 139.421875 134.644531 143.058594 134.101562 144.191406 133.417969 C 145.007812 132.964844 145.007812 132.917969 143.738281 132.917969 C 143.011719 132.964844 141.695312 133.144531 140.921875 133.375 Z M 140.921875 133.375 "/>
<path style=" stroke:none;fill-rule:nonzero;fill:rgb(0%,0%,0%);fill-opacity:1;" d="M 138.058594 135.007812 C 138.058594 135.644531 137.96875 135.6875 137.652344 135.1875 C 137.332031 134.6875 136.742188 134.644531 134.15625 135.097656 C 129.296875 135.914062 129.023438 135.960938 128.839844 135.460938 C 128.75 135.140625 128.617188 135.097656 128.386719 135.414062 C 127.980469 136.140625 128.660156 136.871094 130.023438 137.140625 C 130.660156 137.230469 131.476562 137.503906 131.746094 137.640625 C 132.839844 138.320312 137.742188 137.867188 139.695312 136.914062 C 142.101562 135.777344 142.238281 135.140625 140.058594 135.140625 C 139.105469 135.140625 138.558594 134.960938 138.742188 134.6875 C 138.878906 134.414062 138.785156 134.234375 138.558594 134.234375 C 138.289062 134.234375 138.058594 134.597656 138.058594 135.007812 Z M 138.058594 135.007812 "/>
<path style=" stroke:none;fill-rule:nonzero;fill:rgb(0%,0%,0%);fill-opacity:1;" d="M 147.824219 157.023438 C 146.097656 157.933594 143.964844 159.429688 143.964844 159.703125 C 143.964844 160.203125 146.28125 161.019531 147.824219 161.019531 C 149.09375 161.019531 149.277344 160.882812 149.09375 160.113281 C 148.914062 159.476562 149.1875 159.113281 150.050781 158.75 C 151.457031 158.25 151.550781 157.617188 150.367188 156.933594 C 149.277344 156.386719 148.960938 156.386719 147.824219 157.023438 Z M 147.824219 157.023438 "/>
<path style=" stroke:none;fill-rule:nonzero;fill:rgb(0%,0%,0%);fill-opacity:1;" d="M 157.636719 159.15625 C 157.316406 159.386719 156.453125 159.476562 155.773438 159.386719 C 155.046875 159.292969 154.367188 159.386719 154.230469 159.613281 C 154.09375 159.839844 153.457031 159.882812 152.820312 159.75 C 152.1875 159.660156 151.683594 159.75 151.683594 160.019531 C 151.683594 160.292969 152.820312 160.746094 154.230469 161.019531 C 156.726562 161.566406 158.996094 161.15625 159.632812 160.066406 C 159.996094 159.523438 158.316406 158.75 157.636719 159.15625 Z M 157.636719 159.15625 "/>
<path style=" stroke:none;fill-rule:nonzero;fill:rgb(0%,0%,0%);fill-opacity:1;" d="M 133.972656 257.171875 C 131.976562 257.808594 130.839844 260.578125 132.382812 261.167969 C 132.75 261.347656 133.0625 261.851562 133.0625 262.300781 C 133.0625 263.300781 135.109375 263.984375 136.199219 263.300781 C 137.0625 262.757812 137.425781 259.488281 136.742188 258.261719 C 136.246094 257.308594 135.0625 256.855469 133.972656 257.171875 Z M 133.972656 257.171875 "/>
<path style=" stroke:none;fill-rule:nonzero;fill:rgb(0%,0%,0%);fill-opacity:1;" d="M 163.492188 270.15625 C 162.855469 270.792969 162.945312 271.65625 163.628906 271.972656 C 163.992188 272.15625 163.949219 272.199219 163.492188 272.199219 C 163.128906 272.15625 162.585938 272.15625 162.3125 272.199219 C 161.675781 272.246094 161.8125 274.199219 162.539062 274.421875 C 162.8125 274.515625 162.992188 274.332031 162.945312 274.015625 C 162.855469 273.699219 163.222656 273.425781 163.71875 273.378906 C 164.308594 273.378906 164.582031 273.105469 164.582031 272.5625 C 164.539062 272.109375 164.582031 271.835938 164.71875 271.972656 C 165.035156 272.289062 165.945312 271.335938 166.351562 270.292969 C 166.582031 269.65625 166.398438 269.523438 165.308594 269.613281 C 164.539062 269.65625 163.71875 269.929688 163.492188 270.15625 Z M 163.492188 270.15625 "/>
<path style=" stroke:none;fill-rule:nonzero;fill:rgb(0%,0%,0%);fill-opacity:1;" d="M 165.671875 280.734375 C 164.8125 281.6875 163.949219 282.867188 163.855469 283.410156 C 163.582031 284.414062 164.175781 285.867188 164.8125 285.867188 C 165.21875 285.867188 167.355469 281.054688 167.355469 280.191406 C 167.355469 279.917969 167.582031 279.601562 167.804688 279.417969 C 168.125 279.191406 168.082031 279.054688 167.804688 279.054688 C 167.535156 279.054688 166.582031 279.828125 165.671875 280.734375 Z M 165.671875 280.734375 "/>
<path style=" stroke:none;fill-rule:nonzero;fill:rgb(0%,0%,0%);fill-opacity:1;" d="M 243.46875 291.3125 C 243.46875 291.675781 243.648438 292.402344 243.878906 292.902344 C 244.101562 293.492188 244.285156 293.539062 244.285156 293.128906 C 244.285156 292.765625 244.101562 292.039062 243.878906 291.539062 C 243.648438 290.949219 243.46875 290.902344 243.46875 291.3125 Z M 243.46875 291.3125 "/>
<path style=" stroke:none;fill-rule:nonzero;fill:rgb(0%,0%,0%);fill-opacity:1;" d="M 165.445312 292.8125 C 164.539062 294.171875 164.21875 295.261719 164.355469 296.667969 C 164.445312 297.667969 166.808594 297.121094 167.398438 295.941406 C 167.941406 294.855469 167.625 291.675781 166.898438 291.449219 C 166.625 291.402344 165.992188 291.992188 165.445312 292.8125 Z M 165.445312 292.8125 "/>
<path style=" stroke:none;fill-rule:nonzero;fill:rgb(0%,0%,0%);fill-opacity:1;" d="M 157.589844 309.699219 C 157.589844 310.699219 157.179688 313.964844 156.679688 316.960938 C 156.179688 319.957031 155.636719 325.589844 155.5 329.445312 C 155.273438 335.621094 154.957031 339.480469 154.230469 343.519531 C 154.09375 344.15625 153.863281 345.878906 153.730469 347.332031 C 153.59375 348.832031 153.363281 350.191406 153.273438 350.328125 C 153.183594 350.511719 153.273438 351.417969 153.546875 352.371094 C 154 354.050781 154.046875 354.050781 154.726562 353.054688 C 155.09375 352.554688 155.316406 351.691406 155.183594 351.148438 C 155.046875 350.648438 155.136719 349.695312 155.363281 349.058594 C 155.589844 348.425781 155.90625 346.789062 156.042969 345.378906 C 156.226562 343.972656 156.410156 342.113281 156.5 341.25 C 157.136719 335.347656 157.542969 330.761719 157.773438 325.816406 C 157.953125 322.679688 158.269531 317.734375 158.542969 314.738281 C 158.996094 310.015625 158.953125 309.289062 158.316406 308.65625 C 157.636719 307.972656 157.589844 308.0625 157.589844 309.699219 Z M 157.589844 309.699219 "/>
<path style=" stroke:none;fill-rule:nonzero;fill:rgb(0%,0%,0%);fill-opacity:1;" d="M 62.582031 309.972656 C 62.492188 310.605469 62.628906 311.921875 62.945312 312.921875 L 63.488281 314.691406 L 63.488281 312.648438 C 63.488281 311.515625 63.355469 310.195312 63.171875 309.699219 C 62.855469 308.878906 62.808594 308.925781 62.582031 309.972656 Z M 62.582031 309.972656 "/>
<path style=" stroke:none;fill-rule:nonzero;fill:rgb(0%,0%,0%);fill-opacity:1;" d="M 63.171875 319.730469 C 63.171875 320.230469 63.308594 320.367188 63.445312 320.003906 C 63.578125 319.6875 63.535156 319.277344 63.398438 319.140625 C 63.261719 318.960938 63.125 319.230469 63.171875 319.730469 Z M 63.171875 319.730469 "/>
<path style=" stroke:none;fill-rule:nonzero;fill:rgb(0%,0%,0%);fill-opacity:1;" d="M 63.171875 324.410156 C 63.125 326.585938 62.988281 327.222656 62.535156 327.042969 C 61.492188 326.632812 62.171875 329.039062 63.488281 330.445312 C 64.488281 331.578125 64.578125 331.898438 64.304688 334.304688 C 64.035156 336.710938 64.941406 345.425781 65.667969 347.285156 C 65.988281 348.148438 68.984375 350.511719 69.347656 350.191406 C 69.484375 350.054688 69.347656 348.148438 69.03125 345.925781 C 68.574219 342.339844 67.441406 339.34375 66.214844 338.480469 C 66.035156 338.34375 65.667969 336.664062 65.398438 334.757812 C 65.167969 332.804688 64.71875 330.808594 64.441406 330.308594 C 64.171875 329.765625 63.808594 327.585938 63.578125 325.40625 C 63.261719 321.546875 63.261719 321.546875 63.171875 324.410156 Z M 63.171875 324.410156 "/>
<path style=" stroke:none;fill-rule:nonzero;fill:rgb(0%,0%,0%);fill-opacity:1;" d="M 251.734375 327.042969 C 251.28125 327.675781 251.097656 327.722656 250.78125 327.265625 C 250.460938 326.8125 250.191406 327.085938 249.597656 328.265625 C 248.191406 331.261719 247.511719 333.621094 247.78125 334.714844 L 248.054688 335.757812 L 249.824219 334.757812 C 251.597656 333.757812 252.234375 332.851562 250.828125 333.398438 C 250.101562 333.667969 250.054688 333.621094 250.691406 332.851562 C 251.324219 332.078125 251.28125 332.035156 250.144531 332.351562 C 248.328125 332.761719 248.507812 331.761719 250.691406 329.21875 C 251.6875 328.082031 252.503906 326.949219 252.503906 326.675781 C 252.503906 326.085938 252.371094 326.175781 251.734375 327.042969 Z M 251.734375 327.042969 "/>
<path style=" stroke:none;fill-rule:nonzero;fill:rgb(0%,0%,0%);fill-opacity:1;" d="M 251.597656 339.433594 C 250.507812 340.707031 249.328125 341.203125 249.328125 340.429688 C 249.328125 340.207031 249.054688 339.660156 248.691406 339.160156 C 248.101562 338.390625 248.054688 338.480469 248.417969 340.023438 C 248.601562 340.976562 249.054688 342.023438 249.328125 342.382812 C 249.78125 342.929688 249.78125 343.519531 249.375 345.152344 C 248.507812 348.605469 247.644531 354.460938 247.554688 357.59375 C 247.511719 359.226562 247.328125 360.953125 247.191406 361.453125 C 246.875 362.632812 242.921875 370.941406 242.5625 371.210938 C 241.835938 371.804688 241.152344 374.980469 241.152344 377.886719 C 241.152344 379.65625 240.832031 381.972656 240.472656 383.015625 C 240.105469 384.0625 239.789062 385.921875 239.789062 387.144531 C 239.789062 388.828125 239.5625 389.601562 238.882812 390.144531 C 238.382812 390.597656 237.972656 391.140625 237.972656 391.460938 C 237.972656 391.734375 237.566406 392.324219 237.066406 392.777344 C 236.5625 393.230469 236.15625 393.867188 236.15625 394.183594 C 236.15625 394.503906 235.746094 395 235.246094 395.273438 C 234.75 395.546875 234.339844 395.953125 234.339844 396.226562 C 234.339844 396.5 233.976562 397.269531 233.523438 397.90625 C 233.066406 398.589844 232.339844 400.3125 231.933594 401.71875 C 231.480469 403.171875 230.617188 404.941406 229.980469 405.714844 C 228.796875 407.074219 228.796875 407.121094 229.523438 408.894531 C 229.9375 409.890625 230.25 410.847656 230.296875 411.070312 C 230.34375 411.253906 230.570312 411.886719 230.796875 412.523438 C 231.980469 415.566406 231.796875 416.882812 229.570312 421.511719 L 227.4375 426.007812 L 228.117188 428.007812 C 229.84375 433.132812 229.480469 435.722656 226.621094 438.992188 C 224.664062 441.214844 222.988281 445.074219 223.757812 445.621094 C 224.574219 446.117188 225.257812 447.84375 225.257812 449.480469 C 225.257812 450.929688 226.164062 452.472656 227.074219 452.472656 C 227.574219 452.472656 228.4375 455.0625 228.4375 456.695312 C 228.4375 458.738281 228.933594 457.875 231.296875 452.113281 C 235.566406 441.714844 235.792969 435.449219 232.433594 424.011719 L 231.070312 419.335938 L 233.25 415.382812 C 234.429688 413.160156 236.929688 409.027344 238.789062 406.167969 C 240.652344 403.308594 243.375 398.722656 244.785156 396 C 246.464844 392.820312 247.738281 390.917969 248.371094 390.6875 C 249.007812 390.417969 249.328125 390.507812 249.328125 390.824219 C 249.328125 391.1875 249.464844 391.1875 249.734375 390.960938 C 249.964844 390.6875 250.234375 388.644531 250.324219 386.375 C 250.414062 383.105469 250.644531 382.019531 251.28125 381.292969 L 252.144531 380.335938 L 249.6875 380.925781 C 246.058594 381.746094 243.46875 380.566406 246.011719 379.203125 C 246.738281 378.882812 247.691406 378.113281 248.144531 377.613281 C 248.960938 376.707031 249.007812 376.386719 248.464844 373.121094 C 247.738281 368.578125 248.601562 363.8125 251.1875 358.273438 C 252.460938 355.460938 253.460938 352.917969 253.277344 352.78125 C 253.1875 352.691406 252.371094 353.644531 251.417969 354.867188 C 250.460938 356.140625 249.597656 357.140625 249.464844 357.140625 C 249.328125 357.140625 249.28125 356.277344 249.375 355.1875 C 249.417969 354.140625 249.328125 352.691406 249.097656 351.964844 C 248.871094 351.191406 248.917969 350.558594 249.191406 350.375 C 249.6875 350.101562 250.960938 346.652344 252.324219 341.929688 C 252.734375 340.429688 253.1875 338.933594 253.324219 338.617188 C 253.6875 337.617188 252.734375 338.027344 251.597656 339.433594 Z M 251.597656 339.433594 "/>
<path style=" stroke:none;fill-rule:nonzero;fill:rgb(0%,0%,0%);fill-opacity:1;" d="M 246.601562 342.839844 C 246.601562 343.65625 246.785156 343.882812 247.285156 343.703125 C 247.644531 343.519531 247.964844 343.15625 247.964844 342.839844 C 247.964844 342.519531 247.644531 342.160156 247.285156 341.976562 C 246.785156 341.792969 246.601562 342.023438 246.601562 342.839844 Z M 246.601562 342.839844 "/>
<path style=" stroke:none;fill-rule:nonzero;fill:rgb(0%,0%,0%);fill-opacity:1;" d="M 161.949219 345.878906 C 162.128906 346.199219 162.085938 346.246094 161.722656 346.0625 C 160.8125 345.472656 159.859375 346.695312 159.859375 348.46875 C 159.859375 350.558594 160.585938 351.554688 162.449219 352.097656 C 164.039062 352.554688 164.582031 352.054688 163.902344 350.691406 C 163.402344 349.742188 164.21875 349.148438 165.035156 349.832031 C 165.492188 350.238281 165.71875 350.191406 165.945312 349.601562 C 166.445312 348.289062 166.21875 347.152344 165.308594 346.246094 C 164.308594 345.242188 161.359375 344.929688 161.949219 345.878906 Z M 161.949219 345.878906 "/>
<path style=" stroke:none;fill-rule:nonzero;fill:rgb(0%,0%,0%);fill-opacity:1;" d="M 68.078125 354.550781 C 67.167969 356.730469 66.804688 358.457031 66.625 362.089844 C 66.351562 366.535156 66.394531 366.902344 67.53125 368.898438 C 70.121094 373.574219 70.664062 377.839844 69.257812 382.746094 C 68.394531 385.648438 68.484375 386.921875 69.9375 392.460938 C 70.847656 396.042969 70.847656 396.363281 70.167969 398.679688 C 69.800781 400.039062 69.03125 401.902344 68.484375 402.808594 C 67.714844 404.125 67.488281 405.308594 67.394531 408.621094 C 67.351562 410.890625 67.078125 413.476562 66.804688 414.34375 C 66.304688 415.792969 66.484375 422.921875 67.03125 425.554688 C 67.121094 426.144531 67.894531 427.324219 68.710938 428.230469 C 70.121094 429.867188 70.167969 430.003906 70.027344 433.769531 C 69.984375 435.902344 69.621094 438.539062 69.257812 439.628906 C 68.574219 441.625 68.574219 441.671875 70.167969 444.347656 C 72.117188 447.664062 72.300781 450.292969 70.753906 452.246094 L 69.757812 453.519531 L 70.710938 455.242188 C 71.621094 456.878906 71.664062 458.832031 70.800781 458.832031 C 70.617188 458.832031 70.527344 459.238281 70.617188 459.785156 C 70.753906 460.554688 70.617188 460.691406 69.9375 460.511719 C 68.4375 460.148438 68.894531 460.917969 70.617188 461.738281 C 71.484375 462.144531 72.210938 462.6875 72.210938 462.917969 C 72.210938 463.460938 74.84375 463.78125 81.746094 464.050781 C 85.105469 464.1875 89.742188 464.414062 91.964844 464.597656 C 99.773438 465.1875 109.8125 464.6875 115.035156 463.507812 C 117.535156 462.917969 119.625 462.824219 125.480469 463.054688 C 132.839844 463.371094 134.15625 463.460938 138.199219 464.277344 C 140.96875 464.867188 146.234375 464.867188 147.144531 464.277344 C 148.097656 463.6875 147.417969 463.144531 143.964844 461.960938 C 141.285156 461.054688 139.921875 460.964844 128.976562 460.738281 C 122.074219 460.644531 116.808594 460.375 116.671875 460.101562 C 116.398438 459.695312 114.308594 459.464844 113.3125 459.738281 C 112.628906 459.964844 111.128906 459.238281 110.3125 458.289062 C 109.402344 457.285156 108.996094 457.242188 108.996094 458.148438 C 108.996094 459.238281 107.679688 458.921875 107.089844 457.695312 C 106.5 456.335938 105.589844 456.152344 105.953125 457.46875 C 106.132812 458.242188 105.953125 458.378906 104.542969 458.378906 C 103.59375 458.378906 102.5 458.058594 102 457.695312 C 101.410156 457.242188 100.914062 457.195312 100.367188 457.46875 C 99.773438 457.785156 99.367188 457.652344 98.777344 457.015625 C 98.050781 456.199219 97.914062 456.199219 97.414062 456.835938 C 96.734375 457.785156 94.734375 457.285156 95.097656 456.289062 C 95.28125 455.789062 95.144531 455.742188 94.554688 456.0625 C 93.507812 456.605469 93.007812 456.605469 92.238281 455.96875 C 91.921875 455.652344 91.375 455.425781 91.101562 455.425781 C 90.828125 455.382812 90.011719 455.242188 89.238281 455.015625 C 88.511719 454.835938 87.015625 454.472656 85.96875 454.199219 C 84.882812 453.925781 84.015625 453.476562 84.015625 453.199219 C 84.015625 452.839844 83.925781 452.839844 83.652344 453.199219 C 83.199219 453.925781 81.429688 453.699219 80.335938 452.792969 C 79.839844 452.339844 79.25 452.113281 79.019531 452.246094 C 78.792969 452.382812 78.613281 451.792969 78.703125 450.929688 C 78.75 450.070312 78.660156 449.390625 78.523438 449.433594 C 77.976562 449.613281 76.25 447.753906 76.480469 447.253906 C 76.570312 446.9375 76.070312 446.117188 75.386719 445.347656 C 73.570312 443.394531 72.164062 440.261719 72.117188 437.902344 C 72.074219 436.8125 71.890625 435.8125 71.710938 435.679688 C 71.527344 435.542969 71.300781 434.816406 71.210938 434.089844 C 71.074219 432.910156 71.210938 432.726562 72.117188 432.820312 C 73.164062 432.953125 73.164062 432.953125 72.9375 428.460938 C 72.664062 423.691406 73.164062 422.058594 74.660156 422.648438 C 75.433594 422.964844 75.660156 424.328125 74.980469 425.007812 C 74.796875 425.28125 74.390625 426.144531 74.117188 426.960938 C 73.707031 428.1875 73.753906 428.867188 74.34375 430.367188 C 75.296875 432.820312 75.386719 432.863281 75.890625 431.910156 C 76.34375 431.136719 76.433594 431.183594 77.25 432.226562 C 77.703125 432.820312 78.113281 433.546875 78.113281 433.816406 C 78.113281 434.769531 78.976562 434.316406 79.113281 433.269531 C 79.25 432.5 79.386719 432.636719 79.65625 433.953125 C 80.15625 436.316406 81.292969 436.269531 81.292969 433.859375 C 81.292969 432.453125 81.429688 432.136719 81.972656 432.320312 C 82.972656 432.726562 82.792969 431.457031 81.746094 430.777344 C 81.246094 430.457031 80.839844 429.914062 80.839844 429.503906 C 80.839844 429.09375 81.246094 428.6875 81.746094 428.550781 C 82.246094 428.414062 82.65625 428.050781 82.65625 427.734375 C 82.65625 427.417969 82.972656 427.050781 83.335938 426.871094 C 83.789062 426.691406 84.15625 427.144531 84.515625 428.414062 C 84.835938 429.414062 85.242188 430.230469 85.425781 430.230469 C 86.105469 430.230469 87.285156 433.042969 87.015625 434.042969 C 86.878906 434.542969 86.96875 435.3125 87.195312 435.679688 C 87.46875 436.085938 87.652344 436.132812 87.652344 435.8125 C 87.652344 435.542969 87.96875 434.953125 88.421875 434.542969 C 88.96875 433.953125 89.015625 433.679688 88.601562 433.453125 C 88.285156 433.269531 87.742188 432 87.378906 430.640625 C 86.425781 427.144531 86.378906 426.960938 86.289062 425.691406 C 86.242188 424.648438 86.199219 424.648438 85.652344 425.328125 C 84.972656 426.28125 84.015625 425.597656 84.015625 424.101562 C 84.015625 423.601562 83.5625 422.921875 83.015625 422.558594 C 82.109375 421.96875 82.066406 421.921875 82.835938 421.378906 C 83.246094 421.058594 83.609375 420.652344 83.609375 420.515625 C 83.609375 420.378906 83.699219 419.96875 83.835938 419.605469 C 83.972656 419.242188 83.789062 418.382812 83.425781 417.65625 C 82.472656 415.792969 82.109375 413.976562 82.65625 413.660156 C 82.925781 413.476562 82.972656 413.707031 82.792969 414.203125 C 82.65625 414.65625 82.699219 414.839844 82.925781 414.65625 C 83.109375 414.476562 83.382812 413.339844 83.425781 412.164062 C 83.519531 411.027344 83.925781 409.710938 84.289062 409.300781 C 85.242188 408.257812 84.746094 403.898438 83.519531 402.355469 C 83.015625 401.765625 82.65625 400.992188 82.65625 400.632812 C 82.65625 400.3125 82.292969 399.8125 81.792969 399.496094 C 81.339844 399.222656 80.792969 398.222656 80.65625 397.316406 C 80.429688 396.179688 79.976562 395.546875 79.203125 395.183594 C 78.613281 394.910156 78.113281 394.503906 78.113281 394.230469 C 78.113281 394 77.796875 393.910156 77.433594 394.09375 C 76.839844 394.320312 76.75 394 76.976562 392.1875 C 77.34375 388.964844 77.433594 388.597656 78.113281 387.78125 C 78.476562 387.375 78.75 386.285156 78.703125 385.378906 C 78.703125 384.195312 78.792969 383.96875 78.976562 384.558594 C 79.203125 385.195312 79.429688 385.285156 79.65625 384.921875 C 79.839844 384.605469 79.886719 384.195312 79.746094 383.96875 C 79.566406 383.742188 79.839844 383.652344 80.335938 383.789062 C 80.839844 383.925781 81.292969 383.695312 81.429688 383.289062 C 81.609375 382.835938 81.476562 382.5625 81.0625 382.5625 C 80.246094 382.5625 80.246094 382.472656 80.929688 380.972656 C 81.246094 380.292969 81.699219 379.882812 82.066406 380.019531 C 82.382812 380.15625 82.65625 380.066406 82.65625 379.839844 C 82.65625 379.566406 82.425781 379.386719 82.15625 379.386719 C 81.835938 379.386719 81.792969 378.660156 82.019531 377.34375 C 82.203125 376.023438 82.15625 375.296875 81.835938 375.296875 C 81.566406 375.296875 81.246094 375.753906 81.15625 376.296875 L 80.972656 377.34375 L 80.882812 376.296875 C 80.882812 375.753906 80.519531 375.164062 80.15625 375.027344 C 79.25 374.664062 79.339844 373.9375 80.335938 372.664062 C 81.203125 371.714844 82.066406 371.257812 81.519531 372.074219 C 81.382812 372.300781 81.476562 372.621094 81.699219 372.800781 C 81.929688 372.9375 82.335938 372.664062 82.609375 372.257812 C 82.972656 371.667969 83.0625 371.621094 83.109375 372.074219 C 83.109375 372.53125 83.246094 372.574219 83.519531 372.300781 C 84.0625 371.757812 84.5625 366.582031 84.109375 365.945312 C 83.5625 365.128906 81.746094 364.859375 81.746094 365.585938 C 81.746094 365.945312 82.019531 366.082031 82.519531 365.898438 C 83.109375 365.675781 83.199219 365.808594 82.972656 366.402344 C 82.792969 366.855469 82.65625 367.308594 82.65625 367.445312 C 82.65625 367.582031 82.382812 367.445312 82.019531 367.171875 C 81.519531 366.765625 81.203125 366.992188 80.335938 368.355469 C 79.792969 369.304688 78.839844 370.578125 78.25 371.210938 C 77.703125 371.847656 76.433594 373.253906 75.433594 374.390625 L 73.664062 376.433594 L 73.296875 374.164062 C 73.117188 372.890625 72.707031 371.4375 72.347656 370.894531 C 71.980469 370.351562 71.710938 369.804688 71.710938 369.671875 C 71.847656 368.761719 71.621094 368.398438 70.574219 368.035156 C 69.9375 367.761719 69.53125 367.398438 69.667969 367.171875 C 69.800781 366.945312 69.53125 366.265625 69.03125 365.628906 C 68.257812 364.628906 68.214844 364.265625 68.621094 363.175781 C 68.941406 362.496094 69.164062 361.269531 69.164062 360.542969 C 69.121094 359.773438 69.300781 358.953125 69.484375 358.730469 C 69.9375 358.136719 70.027344 352.28125 69.621094 352.007812 C 69.394531 351.875 68.710938 353.054688 68.078125 354.550781 Z M 74.207031 387.328125 C 74.117188 388.054688 73.664062 388.964844 73.253906 389.28125 C 72.527344 389.824219 72.390625 389.691406 72.117188 388.148438 C 71.890625 386.738281 72.027344 386.238281 72.800781 385.378906 C 73.707031 384.421875 73.800781 384.375 74.070312 385.148438 C 74.253906 385.605469 74.296875 386.558594 74.207031 387.328125 Z M 76.976562 420.695312 C 76.839844 420.921875 76.386719 421.152344 76.023438 421.152344 C 75.660156 421.152344 75.476562 420.921875 75.613281 420.695312 C 75.753906 420.425781 76.203125 420.242188 76.570312 420.242188 C 76.933594 420.242188 77.113281 420.425781 76.976562 420.695312 Z M 78.25 424.328125 C 79.203125 425.464844 79.25 426.144531 78.339844 426.144531 C 77.976562 426.144531 77.660156 425.734375 77.660156 425.238281 C 77.660156 424.738281 77.476562 424.328125 77.207031 424.328125 C 76.976562 424.328125 76.75 424.101562 76.75 423.875 C 76.75 423.148438 77.386719 423.332031 78.25 424.328125 Z M 78.25 424.328125 "/>
<path style=" stroke:none;fill-rule:nonzero;fill:rgb(0%,0%,0%);fill-opacity:1;" d="M 82.019531 381.429688 C 81.882812 381.789062 81.972656 382.109375 82.203125 382.109375 C 82.472656 382.109375 82.65625 381.789062 82.65625 381.429688 C 82.65625 381.0625 82.5625 380.746094 82.472656 380.746094 C 82.382812 380.746094 82.203125 381.0625 82.019531 381.429688 Z M 82.019531 381.429688 "/>
<path style=" stroke:none;fill-rule:nonzero;fill:rgb(0%,0%,0%);fill-opacity:1;" d="M 163.082031 413.617188 C 162.765625 413.976562 162.585938 415.246094 162.675781 416.429688 C 162.8125 418.289062 162.992188 418.742188 164.085938 419.335938 C 165.171875 419.925781 165.445312 419.925781 166.582031 419.289062 C 167.355469 418.878906 167.804688 418.246094 167.761719 417.609375 C 167.761719 417.109375 167.898438 416.746094 168.125 416.882812 C 168.761719 417.289062 168.53125 415.023438 167.761719 413.976562 C 166.945312 412.796875 163.949219 412.570312 163.082031 413.617188 Z M 163.082031 413.617188 "/>
<path style=" stroke:none;fill-rule:nonzero;fill:rgb(0%,0%,0%);fill-opacity:1;" d="M 85.472656 423.421875 C 85.472656 424.054688 85.5625 424.28125 85.699219 423.964844 C 85.789062 423.691406 85.789062 423.148438 85.699219 422.828125 C 85.5625 422.558594 85.472656 422.785156 85.472656 423.421875 Z M 85.472656 423.421875 "/>
<path style=" stroke:none;fill-rule:nonzero;fill:rgb(0%,0%,0%);fill-opacity:1;" d="M 41.328125 429.914062 C 41.460938 430.050781 43.097656 430.273438 44.960938 430.457031 C 46.824219 430.59375 49 430.820312 49.726562 430.910156 C 54.453125 431.410156 56.175781 431.683594 56.949219 431.910156 C 57.449219 432.046875 57.675781 431.957031 57.496094 431.683594 C 57.359375 431.457031 55.949219 431 54.40625 430.730469 C 51.136719 430.183594 40.964844 429.550781 41.328125 429.914062 Z M 41.328125 429.914062 "/>
<path style=" stroke:none;fill-rule:nonzero;fill:rgb(0%,0%,0%);fill-opacity:1;" d="M 58.449219 432.09375 C 58.675781 432.320312 59.539062 432.726562 60.402344 432.953125 C 62.355469 433.5 61.765625 432.953125 59.675781 432.226562 C 58.765625 431.910156 58.222656 431.863281 58.449219 432.09375 Z M 58.449219 432.09375 "/>
<path style=" stroke:none;fill-rule:nonzero;fill:rgb(0%,0%,0%);fill-opacity:1;" d="M 83.5625 432.273438 C 83.5625 432.636719 83.878906 432.953125 84.246094 432.953125 C 84.652344 432.953125 85.105469 433.363281 85.289062 433.859375 C 85.609375 434.769531 85.609375 434.769531 86.199219 433.859375 C 86.652344 433.089844 86.558594 432.910156 85.378906 432.273438 C 83.742188 431.410156 83.5625 431.410156 83.5625 432.273438 Z M 83.5625 432.273438 "/>
<path style=" stroke:none;fill-rule:nonzero;fill:rgb(0%,0%,0%);fill-opacity:1;" d="M 264.085938 433.5 C 262.90625 434.179688 259.636719 437.492188 259.910156 437.765625 C 260.269531 438.128906 263.585938 436.085938 264.632812 434.863281 C 266.175781 433 265.949219 432.453125 264.085938 433.5 Z M 264.085938 433.5 "/>
<path style=" stroke:none;fill-rule:nonzero;fill:rgb(0%,0%,0%);fill-opacity:1;" d="M 302.007812 433.269531 C 302.007812 433.5 303.507812 433.589844 305.277344 433.5 C 310.953125 433.316406 311.5 433.089844 306.683594 433.042969 C 304.097656 433 302.007812 433.089844 302.007812 433.269531 Z M 302.007812 433.269531 "/>
<path style=" stroke:none;fill-rule:nonzero;fill:rgb(0%,0%,0%);fill-opacity:1;" d="M 101.730469 436.585938 C 101.730469 436.8125 101.957031 437.039062 102.183594 437.039062 C 102.453125 437.039062 102.636719 436.8125 102.636719 436.585938 C 102.636719 436.316406 102.453125 436.132812 102.183594 436.132812 C 101.957031 436.132812 101.730469 436.316406 101.730469 436.585938 Z M 101.730469 436.585938 "/>
<path style=" stroke:none;fill-rule:nonzero;fill:rgb(0%,0%,0%);fill-opacity:1;" d="M 56.316406 437.539062 C 58.71875 438.582031 59.3125 438.855469 60.082031 439.308594 C 60.492188 439.535156 61.21875 439.945312 61.625 440.171875 C 62.082031 440.355469 62.628906 441.261719 62.898438 442.167969 C 63.125 443.03125 63.488281 443.894531 63.625 444.074219 C 64.082031 444.484375 66.304688 443.351562 66.304688 442.667969 C 66.304688 441.714844 63.808594 439.945312 60.765625 438.765625 C 57.769531 437.585938 53.996094 436.539062 56.316406 437.539062 Z M 56.316406 437.539062 "/>
<path style=" stroke:none;fill-rule:nonzero;fill:rgb(0%,0%,0%);fill-opacity:1;" d="M 205.820312 446.890625 C 204.730469 447.253906 203.910156 447.664062 204.003906 447.753906 C 204.320312 448.027344 208 446.890625 208 446.527344 C 208 446.300781 207.953125 446.117188 207.910156 446.164062 C 207.820312 446.164062 206.910156 446.484375 205.820312 446.890625 Z M 205.820312 446.890625 "/>
<path style=" stroke:none;fill-rule:nonzero;fill:rgb(0%,0%,0%);fill-opacity:1;" d="M 46.6875 447.347656 C 47.003906 447.480469 47.414062 447.4375 47.550781 447.300781 C 47.730469 447.164062 47.460938 447.027344 46.957031 447.074219 C 46.457031 447.074219 46.320312 447.210938 46.6875 447.347656 Z M 46.6875 447.347656 "/>
<path style=" stroke:none;fill-rule:nonzero;fill:rgb(0%,0%,0%);fill-opacity:1;" d="M 49.863281 447.800781 C 50.140625 447.890625 50.683594 447.890625 51 447.800781 C 51.273438 447.664062 51.046875 447.570312 50.410156 447.570312 C 49.773438 447.570312 49.546875 447.664062 49.863281 447.800781 Z M 49.863281 447.800781 "/>
<path style=" stroke:none;fill-rule:nonzero;fill:rgb(0%,0%,0%);fill-opacity:1;" d="M 52.910156 448.480469 C 53.679688 448.753906 54.585938 449.207031 54.953125 449.570312 C 55.3125 449.886719 56.269531 450.25 56.996094 450.386719 C 57.90625 450.570312 57.449219 450.203125 55.632812 449.296875 C 54.132812 448.570312 52.589844 447.9375 52.226562 447.980469 C 51.863281 447.980469 52.183594 448.207031 52.910156 448.480469 Z M 52.910156 448.480469 "/>
<path style=" stroke:none;fill-rule:nonzero;fill:rgb(0%,0%,0%);fill-opacity:1;" d="M 198.691406 448.886719 C 197.191406 449.390625 191.285156 450.476562 185.519531 451.339844 C 177.390625 452.566406 174.074219 453.292969 170.53125 454.5625 C 168.035156 455.425781 164.992188 456.378906 163.71875 456.558594 C 162.496094 456.789062 160.996094 457.105469 160.449219 457.285156 C 159.679688 457.515625 159.40625 457.378906 159.40625 456.878906 C 159.40625 456.515625 159.722656 456.109375 160.085938 455.925781 C 161.402344 455.425781 160.765625 454.835938 159.316406 455.199219 C 156.769531 455.789062 155.136719 456.558594 153.863281 457.832031 C 152.320312 459.238281 152.1875 460.011719 153.640625 459.101562 C 154.773438 458.332031 158.542969 456.925781 158.8125 457.148438 C 158.90625 457.242188 158.453125 457.875 157.816406 458.601562 C 157.136719 459.285156 156.679688 459.917969 156.769531 460.011719 C 157 460.191406 163.359375 458.058594 165.535156 457.015625 C 166.535156 456.558594 168.171875 456.0625 169.167969 455.96875 C 170.167969 455.832031 171.804688 455.519531 172.847656 455.242188 C 173.847656 454.972656 177.210938 454.472656 180.339844 454.109375 C 183.476562 453.746094 188.246094 452.792969 191.015625 451.976562 C 199.824219 449.433594 201.414062 448.980469 202.546875 448.480469 L 203.6875 447.980469 L 202.546875 448.027344 C 201.914062 448.027344 200.1875 448.433594 198.691406 448.886719 Z M 198.691406 448.886719 "/>
<path style=" stroke:none;fill-rule:nonzero;fill:rgb(0%,0%,0%);fill-opacity:1;" d="M 261.589844 451.523438 C 261.589844 451.746094 261.089844 452.066406 260.453125 452.203125 C 258.636719 452.65625 258.953125 454.292969 261.136719 455.789062 C 262.632812 456.835938 262.949219 456.742188 262.949219 455.519531 C 262.949219 454.972656 263.269531 454.019531 263.722656 453.429688 C 264.402344 452.382812 264.402344 452.292969 263.632812 451.746094 C 262.679688 451.019531 261.589844 450.929688 261.589844 451.523438 Z M 261.589844 451.523438 "/>
<path style=" stroke:none;fill-rule:nonzero;fill:rgb(0%,0%,0%);fill-opacity:1;" d="M 151.640625 461.644531 C 151.367188 462.234375 150.6875 463.144531 150.1875 463.6875 C 149.371094 464.640625 149.324219 464.824219 149.914062 465.914062 C 150.234375 466.59375 150.824219 467.230469 151.230469 467.367188 C 151.59375 467.5 152.59375 468.136719 153.410156 468.726562 C 155.183594 470.089844 155.273438 469.636719 153.683594 467.277344 C 152.777344 465.914062 152.457031 464.914062 152.410156 463.054688 C 152.410156 461.738281 152.367188 460.644531 152.277344 460.644531 C 152.230469 460.644531 151.910156 461.101562 151.640625 461.644531 Z M 151.640625 461.644531 "/>
<path style=" stroke:none;fill-rule:nonzero;fill:rgb(0%,0%,0%);fill-opacity:1;" d="M 10.671875 465.640625 C 9.71875 466.640625 9.128906 467.457031 9.355469 467.457031 C 9.628906 467.457031 10.492188 466.640625 11.308594 465.640625 C 12.082031 464.640625 12.671875 463.824219 12.625 463.824219 C 12.535156 463.824219 11.625 464.640625 10.671875 465.640625 Z M 10.671875 465.640625 "/>
<path style=" stroke:none;fill-rule:nonzero;fill:rgb(0%,0%,0%);fill-opacity:1;" d="M 220.53125 466.046875 C 219.625 466.773438 218.898438 467.546875 218.988281 467.773438 C 219.078125 467.957031 220.125 468.457031 221.304688 468.863281 C 224.210938 469.863281 224.710938 470.363281 223.714844 471.453125 C 222.941406 472.3125 213.949219 475.539062 209.589844 476.488281 C 207.5 476.988281 203.503906 476.898438 202.6875 476.398438 C 202.324219 476.171875 198.007812 476.808594 196.738281 477.214844 C 196.417969 477.355469 196.101562 477.445312 195.964844 477.445312 C 195.828125 477.445312 194.875 477.761719 193.875 478.171875 C 191.558594 478.941406 184.113281 479.625 179.296875 479.441406 C 177.34375 479.351562 175.753906 479.488281 175.753906 479.714844 C 175.753906 480.167969 165.535156 479.894531 164.765625 479.441406 C 164.265625 479.121094 158.953125 480.667969 158.953125 481.121094 C 158.953125 482.074219 171.078125 482.710938 171.984375 481.847656 C 172.121094 481.667969 174.300781 481.53125 176.796875 481.53125 C 181.203125 481.53125 182.292969 481.394531 191.105469 479.941406 C 193.601562 479.488281 196.144531 479.351562 197.328125 479.535156 C 199.871094 479.894531 201.507812 479.488281 201.820312 478.441406 C 202.050781 477.804688 202.457031 477.671875 203.503906 477.804688 C 205.730469 478.125 214.355469 476.988281 216.765625 476.039062 C 219.261719 475.035156 222.214844 474.902344 222.894531 475.71875 C 223.167969 476.039062 223.484375 477.035156 223.667969 477.941406 C 224.03125 479.804688 223.484375 480.441406 221.394531 480.710938 L 220.035156 480.894531 L 221.304688 481.4375 C 222.398438 481.890625 222.488281 482.121094 222.078125 482.890625 C 221.804688 483.390625 221.214844 483.980469 220.714844 484.253906 C 220.261719 484.480469 219.761719 485.070312 219.625 485.523438 C 219.214844 486.703125 220.53125 489.113281 222.125 490.019531 C 224.847656 491.652344 222.988281 492.96875 219.761719 491.652344 C 218.355469 491.109375 216.535156 490.882812 213.675781 490.882812 C 211.449219 490.925781 205.59375 490.972656 200.734375 490.972656 C 191.789062 491.0625 190.332031 490.972656 188.246094 490.15625 C 187.609375 489.929688 187.109375 489.882812 187.109375 490.0625 C 187.109375 490.246094 186.929688 490.109375 186.746094 489.792969 C 186.515625 489.472656 185.472656 489.15625 184.339844 489.066406 C 181.203125 488.792969 178.390625 488.339844 176.890625 487.886719 C 176.164062 487.660156 174.9375 487.386719 174.164062 487.25 C 173.4375 487.160156 172.800781 487.023438 172.800781 486.976562 C 172.800781 486.933594 172.214844 486.839844 171.441406 486.75 C 168.308594 486.480469 165.671875 486.023438 164.492188 485.523438 C 163.8125 485.253906 163.128906 485.027344 162.945312 485.070312 C 162.722656 485.117188 162.585938 485.027344 162.585938 484.796875 C 162.585938 484.253906 158.589844 484.164062 157.542969 484.753906 C 156.863281 485.117188 156.453125 485.117188 156.089844 484.753906 C 155.726562 484.390625 155.816406 484.253906 156.316406 484.253906 C 158.316406 484.253906 159.269531 481.074219 157.589844 480.167969 C 156.179688 479.394531 157 478.667969 158.90625 478.988281 C 160.175781 479.167969 160.8125 479.03125 161.765625 478.21875 C 162.855469 477.308594 162.945312 477.035156 162.632812 474.8125 C 162.085938 471.042969 161.222656 470.726562 161.222656 474.3125 C 161.222656 477.125 161.132812 477.355469 159.996094 477.851562 C 158.953125 478.351562 156.453125 478.441406 151.457031 478.261719 C 151.230469 478.261719 149.371094 478.667969 147.371094 479.167969 C 145.375 479.667969 141.785156 480.304688 139.421875 480.574219 C 137.0625 480.847656 134.109375 481.300781 132.839844 481.53125 C 130.160156 482.027344 127.34375 482.300781 120.574219 482.664062 C 116.441406 482.9375 114.988281 482.800781 112.171875 482.074219 C 109.949219 481.53125 107.542969 481.257812 105.269531 481.300781 C 102.910156 481.394531 101.730469 481.210938 101.730469 480.894531 C 101.730469 480.53125 101.640625 480.53125 101.367188 480.894531 C 101.003906 481.4375 99.460938 481.574219 99.460938 481.03125 C 99.460938 480.847656 98.824219 480.894531 98.097656 481.164062 C 97.097656 481.484375 96.550781 481.484375 96.097656 481.121094 C 95.78125 480.847656 95.371094 480.757812 95.234375 480.941406 C 95.050781 481.074219 94.914062 480.984375 94.914062 480.621094 C 94.914062 480.261719 94.734375 480.214844 94.371094 480.484375 C 94.054688 480.757812 93.328125 480.894531 92.78125 480.847656 C 91.554688 480.757812 91.511719 481.03125 92.417969 482.210938 C 92.828125 482.710938 94.054688 484.660156 95.144531 486.570312 C 96.277344 488.429688 98.1875 491.109375 99.460938 492.472656 C 100.683594 493.832031 102.273438 496.011719 102.957031 497.328125 L 104.226562 499.6875 L 116.941406 499.597656 C 128.523438 499.464844 129.65625 499.417969 129.523438 498.691406 C 129.476562 498.28125 129.613281 497.828125 129.839844 497.691406 C 130.292969 497.375 133.519531 498.738281 133.519531 499.234375 C 133.519531 499.371094 136.289062 499.554688 139.695312 499.644531 C 145.644531 499.734375 148.871094 499.234375 148.277344 498.328125 C 147.871094 497.644531 150.550781 495.148438 152.140625 494.695312 C 154.457031 494.015625 159.269531 494.015625 160.085938 494.695312 C 160.449219 494.964844 160.859375 495.96875 161.039062 496.917969 C 161.402344 498.960938 161.996094 499.6875 163.128906 499.6875 C 163.949219 499.6875 164.039062 499.464844 163.765625 498.238281 C 163.359375 496.191406 161.269531 492.789062 160.222656 492.515625 C 159.679688 492.378906 159.449219 492.0625 159.585938 491.652344 C 159.722656 491.292969 159.859375 490.609375 159.859375 490.15625 C 159.859375 489.019531 162.128906 488.566406 164.21875 489.25 C 165.355469 489.65625 165.761719 489.972656 165.535156 490.472656 C 165.308594 491.0625 165.402344 491.109375 165.992188 490.609375 C 166.582031 490.109375 166.71875 490.109375 166.582031 490.609375 C 166.445312 491.292969 167.214844 491.472656 175.300781 492.699219 C 188.0625 494.605469 191.921875 495.011719 202.777344 495.378906 C 209.359375 495.648438 215.902344 496.285156 213.359375 496.464844 C 212.859375 496.511719 212.542969 496.875 212.542969 497.464844 C 212.542969 498.417969 212.542969 498.417969 211.632812 497.375 C 210.90625 496.464844 210.769531 496.417969 210.722656 497.054688 C 210.722656 497.511719 210.949219 497.871094 211.179688 497.871094 C 211.449219 497.871094 211.632812 498.191406 211.632812 498.597656 C 211.632812 498.960938 211.859375 499.144531 212.085938 499.007812 C 212.359375 498.871094 212.542969 498.960938 212.542969 499.1875 C 212.542969 499.871094 233.523438 499.871094 236.703125 499.1875 C 238.019531 498.917969 239.925781 498.28125 240.878906 497.828125 C 242.332031 497.144531 242.785156 497.101562 243.332031 497.554688 C 243.96875 498.054688 247.238281 498.960938 250.597656 499.554688 L 252.144531 499.777344 L 251.824219 497.144531 C 251.644531 495.648438 251.28125 494.015625 251.097656 493.425781 C 250.871094 492.832031 250.691406 491.925781 250.691406 491.425781 C 250.691406 490.925781 249.964844 489.019531 249.054688 487.25 C 248.144531 485.480469 247.691406 484.300781 248.011719 484.570312 C 248.828125 485.386719 249.28125 485.296875 249.007812 484.34375 C 248.738281 483.300781 247.375 482.4375 246.648438 482.847656 C 246.28125 483.117188 246.421875 483.753906 247.238281 485.207031 C 247.828125 486.296875 248.371094 487.613281 248.417969 488.113281 C 248.644531 490.199219 248.371094 492.921875 248.011719 492.699219 C 247.78125 492.515625 247.511719 492.652344 247.421875 492.96875 C 247.285156 493.289062 246.738281 492.609375 246.101562 491.515625 C 244.558594 488.703125 242.605469 487.703125 238.425781 487.566406 C 234.382812 487.476562 233.566406 487.660156 233.203125 488.839844 C 232.796875 490.0625 232.070312 489.929688 232.070312 488.613281 C 232.070312 488.019531 231.660156 487.070312 231.207031 486.480469 C 230.34375 485.386719 230.34375 485.34375 231.433594 482.890625 C 232.75 479.847656 232.796875 477.035156 231.660156 474.765625 C 230.570312 472.722656 226.253906 468.636719 223.9375 467.546875 C 222.757812 466.957031 222.304688 466.457031 222.351562 465.730469 C 222.351562 465.1875 222.351562 464.730469 222.304688 464.730469 C 222.261719 464.730469 221.441406 465.324219 220.53125 466.046875 Z M 151.957031 481.710938 C 152.046875 482.210938 152.1875 483.074219 152.320312 483.617188 C 152.59375 484.707031 152.277344 484.933594 149.414062 485.34375 C 148.550781 485.480469 146.824219 485.753906 145.554688 485.976562 C 144.328125 486.207031 142.964844 486.433594 142.601562 486.433594 C 140.785156 486.433594 135.246094 487.070312 132.609375 487.566406 C 130.976562 487.839844 128.386719 488.066406 126.84375 488.019531 C 124.117188 487.929688 121.257812 486.933594 121.257812 486.070312 C 121.257812 485.433594 128.386719 485.480469 128.617188 486.113281 C 128.707031 486.433594 129.34375 486.296875 130.339844 485.707031 C 131.203125 485.207031 134.203125 484.34375 136.925781 483.84375 C 139.695312 483.300781 142.558594 482.617188 143.285156 482.347656 C 145.238281 481.667969 149.960938 480.667969 150.957031 480.757812 C 151.457031 480.804688 151.867188 481.257812 151.957031 481.710938 Z M 132.839844 491.5625 C 133.019531 491.835938 133.429688 491.925781 133.789062 491.789062 C 134.15625 491.652344 134.425781 491.699219 134.425781 491.925781 C 134.425781 492.105469 135.246094 492.652344 136.246094 493.105469 C 137.242188 493.558594 138.335938 494.238281 138.605469 494.605469 C 138.925781 494.964844 139.96875 495.785156 140.96875 496.375 C 142.328125 497.285156 143.148438 497.464844 144.511719 497.285156 C 145.464844 497.144531 146.234375 497.238281 146.234375 497.464844 C 146.234375 497.691406 145.734375 497.871094 145.144531 497.871094 C 144.511719 497.871094 143.875 498.101562 143.738281 498.328125 C 143.507812 498.691406 143.238281 498.691406 142.828125 498.328125 C 142.511719 498.054688 141.695312 497.964844 141.058594 498.144531 C 140.195312 498.328125 139.789062 498.238281 139.605469 497.691406 C 139.46875 497.285156 139.0625 496.964844 138.695312 496.964844 C 138.335938 496.964844 136.246094 496.191406 133.972656 495.242188 C 130.113281 493.648438 128.976562 492.652344 129.65625 491.515625 C 130.023438 490.925781 132.472656 490.925781 132.839844 491.5625 Z M 243.421875 494.558594 C 243.421875 495.738281 242.878906 495.921875 242.058594 494.921875 C 241.421875 494.148438 241.742188 493.46875 242.742188 493.46875 C 243.152344 493.46875 243.421875 493.878906 243.421875 494.558594 Z M 243.421875 494.558594 "/>
<path style=" stroke:none;fill-rule:nonzero;fill:rgb(0%,0%,0%);fill-opacity:1;" d="M 138.96875 467.730469 L 135.5625 468.320312 L 138.832031 468.136719 C 140.648438 468.046875 142.511719 467.773438 142.917969 467.5 C 143.921875 466.910156 143.507812 466.957031 138.96875 467.730469 Z M 138.96875 467.730469 "/>
<path style=" stroke:none;fill-rule:nonzero;fill:rgb(0%,0%,0%);fill-opacity:1;" d="M 15.167969 471.816406 C 14.984375 472.265625 14.578125 472.992188 14.261719 473.359375 C 13.398438 474.402344 12.898438 476.71875 13.625 476.445312 C 14.214844 476.265625 16.03125 471.496094 15.667969 471.132812 C 15.53125 471.042969 15.304688 471.363281 15.167969 471.816406 Z M 15.167969 471.816406 "/>
<path style=" stroke:none;fill-rule:nonzero;fill:rgb(0%,0%,0%);fill-opacity:1;" d="M 205.953125 476.082031 C 205.820312 476.308594 205.910156 476.535156 206.136719 476.535156 C 206.410156 476.535156 206.636719 476.308594 206.636719 476.082031 C 206.636719 475.808594 206.546875 475.628906 206.457031 475.628906 C 206.320312 475.628906 206.089844 475.808594 205.953125 476.082031 Z M 205.953125 476.082031 "/>
<path style=" stroke:none;fill-rule:nonzero;fill:rgb(0%,0%,0%);fill-opacity:1;" d="M 12.71875 478.308594 C 12.71875 479.078125 13.535156 479.257812 13.804688 478.578125 C 13.941406 478.171875 13.804688 477.898438 13.398438 477.898438 C 13.03125 477.898438 12.71875 478.082031 12.71875 478.308594 Z M 12.71875 478.308594 "/>
<path style=" stroke:none;fill-rule:nonzero;fill:rgb(0%,0%,0%);fill-opacity:1;" d="M 252.503906 480.621094 C 252.777344 481.121094 253.09375 481.53125 253.230469 481.53125 C 253.324219 481.53125 253.230469 481.121094 252.960938 480.621094 C 252.6875 480.121094 252.371094 479.714844 252.234375 479.714844 C 252.144531 479.714844 252.234375 480.121094 252.503906 480.621094 Z M 252.503906 480.621094 "/>
<path style=" stroke:none;fill-rule:nonzero;fill:rgb(0%,0%,0%);fill-opacity:1;" d="M 205.273438 480.894531 C 204.910156 480.941406 203.414062 481.164062 202.003906 481.300781 C 197.734375 481.757812 199.007812 482.4375 204.09375 482.4375 C 206.679688 482.4375 208.90625 482.617188 209 482.847656 C 209.136719 483.207031 213.902344 481.257812 213.902344 480.847656 C 213.902344 480.621094 206.367188 480.621094 205.273438 480.894531 Z M 205.273438 480.894531 "/>
<path style=" stroke:none;fill-rule:nonzero;fill:rgb(0%,0%,0%);fill-opacity:1;" d="M 276.121094 491.925781 C 272.761719 492.652344 267.945312 494.421875 267.945312 495.011719 C 267.945312 495.332031 267.808594 495.558594 267.628906 495.511719 C 267.21875 495.421875 263.40625 498.871094 263.40625 499.371094 C 263.40625 499.554688 272.214844 499.6875 282.976562 499.6875 L 302.597656 499.6875 L 300.601562 498.144531 C 297.554688 495.875 292.378906 493.378906 288.472656 492.425781 C 284.933594 491.515625 279.257812 491.292969 276.121094 491.925781 Z M 276.121094 491.925781 "/>
<path style=" stroke:none;fill-rule:nonzero;fill:rgb(0%,0%,0%);fill-opacity:1;" d="M 254.914062 493.789062 C 254.914062 494.921875 255.003906 495.378906 255.09375 494.785156 C 255.183594 494.238281 255.183594 493.335938 255.09375 492.742188 C 255.003906 492.195312 254.914062 492.652344 254.914062 493.789062 Z M 254.914062 493.789062 "/>
<path style=" stroke:none;fill-rule:nonzero;fill:rgb(0%,0%,0%);fill-opacity:1;" d="M 81.292969 493.515625 C 78.25 494.378906 73.84375 496.464844 71.390625 498.191406 L 69.257812 499.6875 L 85.332031 499.6875 C 99.503906 499.6875 101.320312 499.597656 100.820312 499.007812 C 100.5 498.644531 100.09375 498.460938 99.867188 498.554688 C 99.683594 498.691406 98.734375 498.054688 97.777344 497.101562 C 96.824219 496.148438 95.460938 495.058594 94.691406 494.742188 C 90.558594 492.921875 85.242188 492.425781 81.292969 493.515625 Z M 81.292969 493.515625 "/>
<path style=" stroke:none;fill-rule:nonzero;fill:rgb(0%,0%,0%);fill-opacity:1;" d="M 184.382812 495.96875 C 184.382812 496.191406 184.65625 496.738281 185.019531 497.191406 C 185.609375 498.011719 185.65625 498.011719 185.429688 496.828125 C 185.199219 495.738281 184.382812 495.058594 184.382812 495.96875 Z M 184.382812 495.96875 "/>
<path style=" stroke:none;fill-rule:nonzero;fill:rgb(0%,0%,0%);fill-opacity:1;" d="M 181.65625 496.917969 C 181.65625 497.78125 182.429688 498.644531 182.796875 498.238281 C 183.109375 497.917969 182.476562 496.058594 182.070312 496.058594 C 181.839844 496.058594 181.65625 496.464844 181.65625 496.917969 Z M 181.65625 496.917969 "/>
<path style=" stroke:none;fill-rule:nonzero;fill:rgb(0%,0%,0%);fill-opacity:1;" d="M 255.320312 497.644531 C 255.320312 498.417969 255.410156 498.644531 255.550781 498.191406 C 255.640625 497.78125 255.640625 497.144531 255.550781 496.828125 C 255.410156 496.558594 255.320312 496.875 255.320312 497.644531 Z M 255.320312 497.644531 "/>
<path style=" stroke:none;fill-rule:nonzero;fill:rgb(0%,0%,0%);fill-opacity:1;" d="M 185.566406 498.917969 C 185.699219 499.371094 185.972656 499.597656 186.109375 499.464844 C 186.246094 499.324219 186.109375 498.960938 185.789062 498.644531 C 185.335938 498.238281 185.292969 498.28125 185.566406 498.917969 Z M 185.566406 498.917969 "/>
<path style=" stroke:none;fill-rule:nonzero;fill:rgb(0%,0%,0%);fill-opacity:1;" d="M 207.09375 499.097656 C 206.046875 499.644531 206.136719 499.6875 208.453125 499.597656 C 209.816406 499.597656 210.453125 499.464844 209.816406 499.371094 C 209.179688 499.234375 208.589844 499.007812 208.453125 498.828125 C 208.316406 498.644531 207.726562 498.78125 207.09375 499.097656 Z M 207.09375 499.097656 "/>
<path style=" stroke:none;fill-rule:nonzero;fill:rgb(0%,0%,0%);fill-opacity:1;" d="M 253.414062 498.738281 C 253.414062 499.007812 253.597656 499.324219 253.867188 499.464844 C 254.140625 499.597656 254.1875 499.417969 254.050781 499.050781 C 253.730469 498.238281 253.414062 498.101562 253.414062 498.738281 Z M 253.414062 498.738281 "/>
</g>
</svg>
