<?xml version="1.0" standalone="no"?>
<!DOCTYPE svg PUBLIC "-//W3C//DTD SVG 20010904//EN"
 "http://www.w3.org/TR/2001/REC-SVG-20010904/DTD/svg10.dtd">
<svg version="1.0" xmlns="http://www.w3.org/2000/svg"
 width="685.000000pt" height="868.000000pt" viewBox="0 0 685.000000 868.000000"
 preserveAspectRatio="xMidYMid meet">

<g transform="translate(0.000000,868.000000) scale(0.100000,-0.100000)"
fill="#000000" stroke="none">
<path d="M3290 7960 c-30 -4 -84 -15 -120 -25 -35 -9 -100 -23 -144 -31 -62
-11 -113 -30 -230 -89 -83 -41 -180 -82 -216 -92 -61 -16 -71 -23 -162 -113
-90 -90 -100 -105 -157 -224 -33 -69 -77 -175 -98 -234 -34 -98 -37 -116 -37
-217 0 -156 28 -362 60 -438 24 -57 50 -142 76 -244 14 -54 -3 -103 -37 -103
-32 0 -82 -60 -90 -109 -4 -22 -3 -71 1 -108 7 -59 9 -64 16 -38 6 24 7 20 4
-17 -2 -26 0 -48 5 -50 4 -2 10 -35 14 -74 6 -76 26 -153 71 -271 24 -67 29
-73 55 -73 15 0 30 4 33 9 10 16 85 18 91 3 9 -25 5 -108 -6 -119 -8 -8 -5
-13 10 -18 12 -3 23 -16 25 -28 18 -94 41 -170 82 -278 l48 -124 4 -192 c3
-188 3 -194 -21 -245 -54 -116 -80 -265 -58 -344 6 -22 39 -82 73 -133 35 -51
77 -118 94 -149 34 -61 89 -116 169 -167 50 -33 163 -128 200 -170 31 -34 95
-79 95 -66 0 7 5 9 10 6 6 -3 10 1 10 9 0 8 8 19 17 24 16 9 16 12 0 36 -10
14 -22 26 -27 26 -5 0 -33 22 -62 49 -29 26 -80 71 -113 98 -112 93 -258 255
-315 349 -39 66 -51 122 -40 189 5 28 12 100 15 160 4 61 8 130 10 155 3 25 5
70 6 100 3 69 16 84 55 64 16 -9 36 -23 45 -33 10 -10 39 -36 66 -57 26 -21
50 -42 51 -46 2 -5 10 -8 18 -8 9 0 12 -4 9 -10 -3 -5 -2 -10 4 -10 5 0 40
-17 78 -38 37 -21 84 -44 103 -51 19 -7 46 -19 60 -26 14 -7 59 -14 100 -14
41 0 91 -5 110 -11 40 -12 117 -12 175 -1 51 9 118 -6 111 -26 -4 -9 -2 -11 6
-7 8 5 9 2 5 -9 -3 -10 -2 -17 4 -17 5 0 14 -10 19 -22 5 -13 9 -17 9 -10 1 6
6 12 12 12 5 0 7 -4 4 -10 -3 -5 -1 -10 6 -10 7 0 9 -8 6 -21 -5 -17 -3 -18
10 -7 14 11 15 10 9 -12 -5 -18 -4 -21 3 -11 5 8 17 16 26 17 14 2 14 0 3 -14
-11 -13 -11 -15 4 -9 22 8 40 -14 26 -33 -8 -12 -9 -12 -4 2 3 10 1 20 -4 23
-6 4 -10 -3 -10 -14 0 -23 16 -36 25 -21 5 8 12 7 23 -2 13 -11 15 -11 10 2
-4 11 1 16 15 17 11 1 24 8 28 15 5 7 9 9 9 4 0 -5 11 3 24 17 13 14 27 23 30
19 4 -3 4 1 1 10 -4 9 0 18 9 21 9 4 16 14 16 22 0 9 5 13 10 10 6 -3 10 -1
10 4 0 6 8 11 18 12 10 0 12 3 4 6 -6 2 -10 9 -7 13 8 13 36 0 28 -14 -3 -6
-3 -8 2 -4 4 4 17 2 29 -4 11 -7 24 -11 28 -10 3 1 9 -5 12 -14 4 -10 2 -13
-7 -8 -9 5 -9 4 1 -7 16 -18 15 -34 -4 -54 -12 -12 -13 -19 -5 -29 9 -11 9
-16 0 -22 -8 -5 -9 -3 -4 6 5 9 4 11 -4 6 -9 -6 -9 -11 1 -23 14 -18 19 -41 9
-47 -8 -5 -5 -85 5 -127 4 -19 -3 -37 -33 -75 -22 -27 -59 -78 -83 -114 -37
-56 -117 -153 -184 -225 -24 -26 -64 -112 -69 -150 -9 -68 49 -209 99 -242 21
-13 25 -10 80 72 32 47 62 89 67 92 4 3 2 12 -7 21 -12 14 -13 35 -6 118 8
104 12 116 80 234 21 36 45 88 54 115 9 28 43 88 76 135 125 179 124 174 105
335 -6 44 -10 175 -10 290 l0 210 36 75 c39 81 66 158 120 342 24 84 39 120
52 124 9 3 14 10 10 16 -3 7 -9 28 -13 49 -5 28 -4 36 6 32 7 -3 19 -1 26 3
13 8 85 13 105 6 6 -2 9 -11 6 -19 -15 -39 19 3 60 75 95 166 141 325 140 487
0 89 -4 120 -20 155 -28 63 -64 93 -114 96 -22 1 -42 4 -45 7 -3 2 9 65 25
138 17 74 37 199 45 279 9 80 25 174 36 210 56 174 31 472 -58 690 -88 217
-198 295 -465 326 -73 8 -161 21 -197 29 -123 27 -245 44 -350 50 -233 11
-318 12 -370 5z m620 -985 c0 -8 9 -19 21 -26 15 -7 20 -18 16 -34 -3 -21 -2
-23 14 -14 13 6 19 6 19 -1 0 -5 3 -9 8 -9 24 4 40 -3 38 -18 0 -10 5 -17 12
-15 14 2 16 -14 3 -23 -6 -3 -3 -21 6 -42 14 -34 14 -36 -1 -24 -10 8 -16 9
-16 3 0 -6 4 -13 9 -16 5 -3 7 -19 5 -36 -2 -19 1 -30 9 -30 6 0 4 -5 -6 -11
-14 -8 -16 -14 -6 -25 9 -11 9 -14 0 -14 -7 0 -10 -3 -8 -7 10 -16 -13 -53
-32 -53 -24 0 -36 -16 -19 -24 7 -3 1 -4 -14 -3 -16 3 -29 -1 -32 -9 -4 -9
-22 -14 -52 -14 -31 0 -54 -6 -67 -17 -11 -10 -17 -12 -13 -5 11 19 -45 15
-73 -5 -14 -9 -21 -11 -17 -5 14 24 -16 22 -35 -2 -16 -21 -24 -24 -39 -16
-26 14 -30 13 -31 -7 0 -16 -1 -16 -8 0 -6 16 -9 16 -18 5 -12 -16 -26 -81
-15 -74 10 6 -3 -103 -24 -199 -19 -89 -21 -138 -7 -207 5 -26 7 -45 3 -43 -4
2 -7 -19 -6 -48 1 -29 -4 -58 -11 -64 -9 -10 -4 -26 22 -69 19 -31 35 -59 37
-63 4 -8 81 -45 89 -43 4 1 18 -9 32 -22 14 -13 28 -22 30 -19 3 2 -1 28 -8
56 -23 87 -23 198 -1 220 8 8 26 13 40 12 15 -2 24 0 21 4 -6 11 36 29 58 25
15 -2 16 0 5 14 -7 9 -9 14 -4 10 4 -4 18 -3 30 1 20 8 77 18 151 26 67 8 109
31 119 63 7 26 14 32 35 32 39 0 47 -11 46 -60 -1 -30 4 -51 16 -63 10 -11 15
-25 13 -32 -3 -7 -1 -16 5 -20 6 -3 11 -15 11 -26 0 -10 5 -19 10 -19 6 0 10
-9 10 -20 0 -11 3 -20 8 -20 4 0 8 -10 9 -22 4 -45 16 -93 27 -107 8 -12 8
-13 -2 -7 -9 5 -12 0 -12 -21 2 -42 -6 -74 -24 -108 -9 -16 -16 -40 -16 -52 0
-13 -4 -23 -9 -23 -10 0 -37 -61 -33 -73 1 -5 -6 -11 -17 -14 -13 -3 -18 -10
-14 -21 4 -9 2 -13 -4 -9 -6 4 -13 0 -16 -8 -4 -9 -18 -13 -42 -11 -20 1 -39
-2 -42 -7 -3 -6 -1 -7 5 -3 6 3 13 2 17 -3 8 -14 -33 -5 -61 14 -22 14 -24 14
-24 0 0 -9 -4 -14 -8 -11 -5 3 -9 0 -10 -7 -5 -58 -2 -58 -77 -2 -70 52 -185
121 -185 110 0 -3 -10 0 -22 7 -13 7 -29 11 -37 9 -7 -1 -11 2 -7 7 3 5 -1 9
-9 9 -8 0 -12 -4 -9 -9 3 -4 0 -8 -5 -8 -6 0 -11 5 -11 10 0 6 -8 10 -17 10
-11 0 -2 9 21 23 22 12 41 27 43 32 1 6 -31 21 -72 34 -61 20 -79 23 -100 13
-37 -17 -31 -32 14 -32 47 0 60 -14 37 -39 -14 -15 -14 -20 -3 -29 8 -7 17
-10 21 -7 3 3 1 -1 -5 -8 -9 -9 -12 -9 -16 1 -3 6 -9 12 -14 12 -5 0 -9 -6 -9
-12 0 -7 -12 -24 -25 -37 -14 -13 -25 -28 -25 -34 0 -25 -40 -54 -70 -49 -17
2 -30 8 -30 14 0 15 -54 58 -67 53 -7 -2 -13 2 -13 9 0 18 -19 25 -55 19 -17
-2 -39 -5 -50 -6 -21 -3 -133 -41 -175 -60 -52 -24 -107 -87 -129 -146 -25
-69 -25 -75 -6 -94 11 -11 24 -13 50 -7 30 7 41 4 76 -22 23 -17 54 -34 70
-38 23 -7 28 -5 33 13 3 12 1 23 -4 25 -15 5 23 42 43 42 14 0 17 -5 13 -16
-6 -15 -4 -15 11 -3 10 8 23 20 28 26 11 14 75 20 244 25 115 3 115 3 121 -21
3 -14 11 -26 18 -29 15 -5 16 10 0 26 -21 21 3 33 42 22 19 -6 47 -10 62 -10
17 0 28 -5 28 -14 0 -21 -31 -28 -50 -11 -21 19 -34 19 -27 1 3 -7 -7 -23 -24
-35 -16 -12 -29 -17 -29 -11 0 5 5 10 12 10 6 0 9 3 5 6 -9 10 -32 -10 -33
-28 -1 -10 4 -18 12 -18 14 0 15 -2 18 -42 2 -25 -27 -57 -53 -60 -23 -2 -34
-4 -51 -11 -8 -3 -53 -8 -99 -11 -46 -4 -91 -12 -99 -19 -8 -6 -18 -11 -21
-11 -3 1 -10 0 -16 -1 -5 -2 -22 -6 -37 -9 -16 -4 -28 -10 -28 -14 0 -4 27
-18 61 -31 54 -21 79 -24 216 -25 85 0 157 1 160 4 8 8 38 5 45 -5 5 -6 8 -3
8 7 0 14 4 13 27 -8 14 -13 23 -27 20 -31 -4 -3 -7 0 -7 7 0 7 -2 11 -5 8 -9
-8 6 -38 16 -32 5 3 5 -6 -1 -20 -7 -18 -6 -26 1 -26 8 0 7 -5 -1 -15 -7 -8
-9 -15 -4 -15 17 0 -51 -39 -76 -43 -14 -3 -36 -10 -50 -15 -14 -5 -56 -10
-95 -11 -38 -1 -77 -2 -85 -2 -8 -1 -37 -8 -65 -17 -27 -9 -54 -17 -60 -18 -5
-1 -12 -3 -15 -4 -22 -8 -47 -7 -58 3 -25 20 -43 17 -36 -6 6 -22 6 -22 -10
-2 -17 20 -17 19 -10 -5 6 -24 5 -24 -8 -6 -10 13 -23 17 -41 14 -18 -3 -32 1
-43 13 -9 10 -33 22 -53 25 -26 5 -49 21 -83 58 -27 28 -48 54 -48 59 0 4 -7
7 -16 7 -8 0 -12 5 -9 10 3 6 1 10 -5 10 -6 0 -20 16 -31 35 -12 19 -26 32
-32 28 -6 -4 -8 0 -4 10 4 11 1 17 -8 17 -7 0 -17 5 -21 12 -5 7 -3 8 7 3 8
-5 6 1 -5 13 -10 12 -23 19 -27 16 -5 -3 -9 5 -10 18 0 13 -3 18 -5 12 -6 -16
-44 -5 -44 11 0 7 -20 31 -45 53 -25 22 -45 48 -45 58 0 16 -2 17 -10 4 -8
-12 -10 -10 -10 10 0 19 -2 22 -9 11 -8 -12 -11 -9 -16 12 -4 15 -11 27 -15
27 -4 0 -11 15 -14 33 -3 17 -8 41 -10 52 -2 11 -9 32 -14 46 -6 15 -8 53 -6
85 8 89 5 175 -6 209 -15 46 -26 164 -22 225 2 30 5 89 5 132 1 42 5 74 8 73
3 -2 11 25 18 60 7 35 19 69 27 76 8 6 11 15 8 20 -3 5 2 6 10 3 9 -3 16 -2
16 3 0 4 14 9 32 9 21 1 38 -6 54 -23 16 -17 30 -24 44 -20 11 3 17 1 14 -4
-3 -5 9 -23 26 -39 33 -31 50 -38 50 -20 0 6 -4 10 -8 10 -5 0 -16 17 -26 37
l-18 38 43 37 c24 21 47 38 51 38 4 0 10 -15 14 -34 14 -78 103 -108 151 -51
19 21 24 37 21 65 -3 36 -3 37 22 27 14 -6 40 -24 57 -41 39 -35 70 -41 79
-14 3 11 12 17 19 14 7 -2 16 2 19 10 6 16 -1 111 -9 125 -3 4 -1 10 5 14 7 4
7 12 0 25 -7 14 -7 25 2 39 10 16 9 23 -5 39 -9 10 -14 22 -10 26 5 4 1 7 -7
6 -8 -1 -22 -2 -30 -1 -13 1 -13 2 0 11 13 8 13 10 -1 10 -9 0 -41 8 -72 19
-32 10 -57 15 -57 11 0 -3 -15 -5 -32 -3 -27 4 -30 2 -18 -7 12 -9 6 -10 -25
-5 -56 9 -57 9 -85 1 -18 -5 -21 -5 -10 3 37 25 -117 49 -172 26 -27 -11 -44
-12 -63 -5 -14 5 -24 6 -21 1 4 -5 -3 -7 -15 -4 -11 3 -23 12 -26 19 -3 8 -10
11 -16 7 -5 -3 -7 -1 -3 5 3 6 -3 17 -14 25 -17 12 -18 16 -7 26 8 6 17 8 21
4 4 -4 4 0 0 10 -4 11 -1 17 7 17 12 0 12 2 1 9 -11 7 -11 9 2 14 9 4 13 13
10 22 -3 8 -1 15 6 15 6 0 8 5 5 11 -4 6 -1 9 6 8 22 -4 52 13 39 21 -7 4 3
20 29 43 21 19 37 37 35 40 -2 2 35 4 83 5 78 0 116 4 213 18 14 2 52 6 85 9
33 3 92 9 131 13 40 5 80 5 90 1 11 -3 32 0 48 8 22 12 27 12 20 1 -4 -7 3 -4
16 7 14 12 20 14 15 5 -7 -12 -6 -13 7 -3 8 7 17 11 20 8 2 -3 20 0 39 6 19 5
48 12 66 15 18 2 47 13 65 24 34 19 157 44 212 42 16 -1 36 3 45 8 24 14 51
12 51 -5z m-1220 -545 c0 -5 -2 -10 -4 -10 -3 0 -8 5 -11 10 -3 6 -1 10 4 10
6 0 11 -4 11 -10z m56 -25 c16 -8 38 -15 50 -15 28 0 84 -20 84 -30 0 -5 -14
-12 -32 -15 -57 -13 -120 -45 -160 -80 -43 -40 -63 -44 -71 -15 -3 11 0 20 6
20 8 0 7 4 -1 12 -18 18 -15 38 6 31 15 -6 15 -5 3 10 -12 15 -11 17 10 18 22
0 23 1 4 9 -18 8 -18 9 5 10 l25 0 -25 20 -25 20 38 0 c20 0 37 5 37 10 0 14
13 13 46 -5z m114 -125 c0 -5 7 -10 16 -10 8 0 12 4 9 10 -3 6 1 7 9 4 23 -9
20 -24 -4 -24 -12 0 -32 -7 -45 -16 -32 -21 -84 -11 -64 12 10 13 14 12 33 -3
12 -10 15 -11 9 -3 -17 19 -16 28 5 33 29 8 32 7 32 -3z m216 -26 c18 -9 38
-22 44 -29 7 -8 -3 -6 -27 5 -21 9 -49 22 -63 28 -19 8 -21 11 -7 11 11 1 34
-6 53 -15z m744 -70 c0 -28 8 -44 35 -71 l36 -36 -41 6 c-58 8 -83 33 -76 75
10 64 46 84 46 26z m225 -8 c19 -16 4 -66 -24 -84 -14 -9 -30 -22 -34 -29 -11
-18 -64 -16 -71 2 -3 10 6 20 28 30 36 17 56 50 56 92 0 27 3 26 45 -11z
m-1125 20 c0 -3 -4 -8 -10 -11 -5 -3 -10 -1 -10 4 0 6 5 11 10 11 6 0 10 -2
10 -4z m80 -6 c0 -5 -4 -10 -10 -10 -5 0 -10 5 -10 10 0 6 5 10 10 10 6 0 10
-4 10 -10z m860 0 c0 -5 -4 -10 -10 -10 -5 0 -10 5 -10 10 0 6 5 10 10 10 6 0
10 -4 10 -10z m80 -6 c0 -8 -4 -12 -10 -9 -5 3 -10 10 -10 16 0 5 5 9 10 9 6
0 10 -7 10 -16z m132 -46 c-7 -7 -12 -8 -12 -2 0 14 12 26 19 19 2 -3 -1 -11
-7 -17z m549 -14 c-27 -46 -27 -52 2 -18 21 24 24 25 39 10 9 -9 19 -41 23
-73 4 -32 13 -78 21 -103 22 -65 29 -179 14 -224 -12 -38 -83 -97 -98 -82 -4
4 1 12 11 17 48 27 77 90 77 167 0 56 -45 108 -106 123 -25 6 -46 14 -48 18
-2 3 7 28 20 55 13 27 22 51 19 54 -2 2 -17 -6 -32 -18 -24 -18 -29 -19 -31
-6 -2 8 0 22 5 30 8 14 91 86 100 86 3 0 -4 -16 -16 -36z m-927 -19 c3 -8 1
-15 -4 -15 -6 0 -10 7 -10 15 0 8 2 15 4 15 2 0 6 -7 10 -15z m26 5 c0 -5 -2
-10 -4 -10 -3 0 -8 5 -11 10 -3 6 -1 10 4 10 6 0 11 -4 11 -10z m-1448 -23 c7
-7 29 -22 48 -33 42 -24 69 -53 70 -77 0 -26 -18 -57 -34 -57 -8 0 -13 -8 -12
-17 1 -11 -16 -23 -53 -37 -60 -23 -69 -38 -70 -107 -1 -76 10 -109 50 -152
22 -22 39 -50 39 -62 0 -21 -3 -20 -40 14 -68 63 -94 169 -66 276 8 32 13 62
10 66 -2 4 0 10 5 13 9 6 7 43 -4 73 -2 6 5 21 16 34 34 39 16 72 -34 62 -21
-4 -28 -3 -23 5 10 16 81 15 98 -1z m1406 -22 c-3 -3 -9 2 -12 12 -6 14 -5 15
5 6 7 -7 10 -15 7 -18z m43 -16 c23 -23 17 -39 -9 -23 -16 11 -30 44 -18 44 3
0 15 -9 27 -21z m1019 -60 c0 -17 -4 -28 -10 -24 -5 3 -10 17 -10 31 0 13 5
24 10 24 6 0 10 -14 10 -31z m48 -79 c-1 -17 -6 -26 -11 -21 -5 5 -6 18 -2 30
9 30 16 26 13 -9z m-202 -77 c30 -67 33 -81 23 -104 -14 -36 -39 -58 -77 -68
-26 -8 -32 -6 -37 9 -3 11 -1 28 4 39 6 11 11 57 11 104 0 46 3 87 7 90 18 19
37 0 69 -70z m-2184 -89 c7 -41 2 -133 -8 -143 -3 -3 -19 9 -35 27 -36 40 -39
90 -7 133 28 37 41 33 50 -17z m2155 -170 c2 -6 -4 -14 -14 -16 -25 -7 -66 9
-58 22 9 14 67 9 72 -6z m-2165 -29 c18 -7 15 -60 -5 -80 -19 -19 -22 -13 -7
16 9 16 7 19 -13 19 -25 0 -47 17 -47 37 0 13 45 18 72 8z m1005 -241 c45 -15
51 -15 98 1 46 15 55 16 100 2 49 -15 47 -17 -17 -21 -12 0 -23 -8 -25 -16 -4
-13 -3 -13 6 0 9 13 11 13 11 -1 0 -9 -10 -19 -22 -23 -33 -8 -48 -7 -48 3 0
5 10 7 23 5 20 -4 21 -4 2 5 -25 12 -58 14 -51 2 3 -4 -6 -6 -21 -3 -18 3 -24
1 -19 -7 10 -15 -4 -16 -205 -9 -61 1 -92 -2 -103 -11 -9 -8 -16 -9 -16 -3 0
22 61 61 108 67 26 4 61 11 77 15 44 12 50 12 102 -6z m303 -24 c0 -5 -2 -10
-4 -10 -3 0 -8 5 -11 10 -3 6 -1 10 4 10 6 0 11 -4 11 -10z m-602 -62 c-6 -18
-28 -21 -28 -4 0 9 7 16 16 16 9 0 14 -5 12 -12z m779 -133 c-4 -8 -2 -17 4
-21 6 -3 9 -16 7 -27 -1 -12 1 -27 5 -33 4 -7 0 -17 -8 -24 -8 -7 -15 -9 -15
-5 0 4 -6 2 -14 -4 -11 -9 -16 -9 -22 0 -5 8 -3 9 6 4 10 -6 12 -4 7 8 -4 11
-2 14 8 11 10 -4 12 0 8 15 -3 12 1 29 8 38 13 15 11 16 -18 10 l-32 -6 21 24
c24 28 43 33 35 10z m47 -48 c-3 -8 -12 -18 -20 -21 -15 -6 -11 7 11 30 13 15
17 11 9 -9z m-94 -1 c0 -11 -19 -15 -25 -6 -3 5 1 10 9 10 9 0 16 -2 16 -4z
m15 -96 c3 -5 1 -10 -4 -10 -6 0 -11 5 -11 10 0 6 2 10 4 10 3 0 8 -4 11 -10z"/>
<path d="M3103 6099 c-18 -5 -33 -13 -33 -18 0 -10 80 2 105 17 18 10 18 11
-10 11 -16 -1 -45 -5 -62 -10z"/>
<path d="M2970 6063 c-14 -2 -32 -7 -40 -10 -24 -10 -84 -9 -92 2 -4 6 -8 0
-8 -11 0 -17 9 -24 44 -33 96 -24 189 -9 235 37 14 14 11 15 -32 10 -26 -3
-47 -2 -47 3 0 9 -15 10 -60 2z"/>
<path d="M3221 5559 c-47 -27 -52 -33 -39 -46 9 -8 33 -17 56 -20 35 -5 40 -3
39 13 -1 11 9 24 26 32 32 15 34 27 8 42 -27 14 -29 14 -90 -21z"/>
<path d="M3465 5522 c-1 -1 -32 -3 -69 -4 -77 -1 -75 -9 5 -28 48 -11 59 -10
87 4 18 9 32 20 32 24 0 7 -48 10 -55 4z"/>
<path d="M4570 5385 c-7 -9 -11 -18 -8 -20 3 -3 11 1 18 10 7 9 11 18 8 20 -3
3 -11 -1 -18 -10z"/>
<path d="M2305 3910 c3 -5 8 -10 11 -10 2 0 4 5 4 10 0 6 -5 10 -11 10 -5 0
-7 -4 -4 -10z"/>
<path d="M2917 3352 c-21 -23 -22 -61 -2 -68 8 -4 15 -15 15 -25 0 -22 45 -37
69 -22 19 12 26 69 12 106 -9 22 -17 27 -44 27 -20 0 -41 -7 -50 -18z"/>
<path d="M3636 3082 c-4 -7 -4 -12 1 -12 4 0 1 -4 -7 -10 -9 -5 -19 -5 -27 2
-9 7 -13 7 -13 0 0 -17 27 -21 45 -8 10 7 16 19 13 26 -3 11 -6 11 -12 2z"/>
<path d="M3570 3030 c0 -5 7 -10 16 -10 8 0 12 5 9 10 -3 6 -10 10 -16 10 -5
0 -9 -4 -9 -10z"/>
<path d="M3638 2843 c-30 -33 -39 -64 -26 -87 18 -31 23 -24 75 102 9 22 -23
12 -49 -15z"/>
<path d="M3642 2583 c-30 -47 -27 -88 8 -88 32 0 49 34 41 82 -8 48 -21 50
-49 6z"/>
<path d="M5360 2615 c0 -5 5 -17 10 -25 5 -8 10 -10 10 -5 0 6 -5 17 -10 25
-5 8 -10 11 -10 5z"/>
<path d="M3470 2215 c0 -22 -9 -94 -20 -160 -11 -66 -22 -181 -25 -255 -6
-149 -13 -252 -20 -290 -28 -164 -33 -236 -17 -252 12 -12 33 22 30 49 -1 10
3 44 11 77 11 49 11 60 -1 67 -10 7 -10 9 0 9 7 0 11 4 7 9 -3 5 -1 12 5 16 5
3 8 20 5 37 -3 16 -2 35 3 42 9 11 16 93 27 316 3 58 10 158 16 223 10 106 9
121 -5 135 -15 15 -16 13 -16 -23z"/>
<path d="M1377 2197 c-2 -6 2 -30 8 -52 l13 -40 1 47 c1 45 -12 72 -22 45z"/>
<path d="M1391 1994 c0 -11 3 -14 6 -6 3 7 2 16 -1 19 -3 4 -6 -2 -5 -13z"/>
<path d="M1391 1881 c-1 -40 -4 -52 -14 -48 -23 9 -8 -44 20 -75 23 -24 25
-31 18 -85 -6 -53 15 -244 31 -287 7 -19 73 -70 81 -63 3 3 0 43 -6 88 -10 76
-44 169 -62 169 -4 0 -10 21 -14 48 -3 26 -13 78 -22 116 -9 38 -19 97 -23
130 l-7 61 -2 -54z"/>
<path d="M5543 1833 c-10 -14 -14 -15 -21 -5 -7 10 -13 4 -26 -22 -31 -66 -46
-118 -40 -142 l6 -23 39 22 c39 22 53 42 22 30 -16 -6 -17 -5 -3 12 14 17 13
18 -12 11 -40 -9 -36 13 12 69 22 25 40 50 40 56 0 13 -3 11 -17 -8z"/>
<path d="M5537 1560 c-25 -29 -47 -39 -47 -22 0 5 -6 16 -13 27 -13 16 -14 15
-9 -16 2 -19 11 -42 20 -52 13 -15 13 -23 2 -59 -17 -59 -30 -148 -36 -248 -6
-115 -7 -117 -80 -266 -61 -126 -64 -134 -64 -206 0 -42 -7 -95 -15 -118 -8
-23 -15 -64 -15 -90 0 -34 -5 -52 -20 -65 -11 -10 -20 -24 -20 -31 0 -7 -11
-21 -25 -32 -13 -11 -22 -21 -20 -24 3 -3 -4 -13 -15 -23 -11 -10 -20 -22 -20
-28 0 -5 -11 -22 -24 -37 -13 -16 -27 -46 -31 -66 -6 -36 -30 -88 -57 -125 -9
-13 -8 -24 2 -48 12 -30 14 -31 80 -31 l68 0 68 102 c38 57 94 152 125 212 36
70 64 112 78 118 12 4 21 3 21 -2 0 -6 5 -10 10 -10 6 0 10 36 10 88 0 68 4
94 19 118 l19 31 -41 -10 c-57 -14 -86 -12 -105 7 -14 14 -13 16 9 25 13 5 35
21 48 35 24 26 24 27 12 104 -17 106 2 201 69 347 15 33 31 71 35 85 7 25 -4
14 -73 -69 -11 -14 -12 -9 -11 29 2 25 -1 57 -5 71 -5 18 -1 36 13 60 11 19
27 59 35 89 8 30 18 66 24 80 17 45 23 80 13 80 -5 0 -21 -13 -34 -30z"/>
<path d="M5430 1487 c0 -27 13 -36 26 -16 3 6 -1 18 -10 27 -15 15 -16 14 -16
-11z"/>
<path d="M3570 1419 c0 -5 -5 -7 -10 -4 -20 13 -40 -17 -40 -60 0 -47 18 -69
62 -77 30 -6 40 8 27 34 -11 21 7 34 25 19 11 -9 15 -6 20 11 9 36 7 47 -14
68 -21 21 -70 28 -70 9z"/>
<path d="M1499 1227 c-32 -75 -48 -259 -26 -293 7 -10 25 -47 40 -81 34 -77
37 -158 9 -259 -18 -63 -18 -75 -6 -110 8 -21 20 -71 29 -110 16 -79 11 -114
-33 -199 -18 -35 -26 -68 -27 -112 l-3 -63 178 0 c162 0 178 2 194 19 32 36 0
162 -55 222 -10 9 -20 31 -24 49 -4 19 -16 35 -31 42 -13 6 -24 15 -24 20 0 4
-6 7 -12 5 -21 -4 -12 98 12 143 7 13 13 37 12 52 0 15 4 28 9 28 6 0 7 -5 3
-12 -4 -7 -3 -8 4 -4 9 5 9 13 1 29 -12 21 -11 22 8 4 18 -16 21 -16 26 -2 4
10 1 15 -11 15 -15 0 -15 2 -2 10 10 6 11 10 3 10 -8 0 -5 8 7 20 12 12 18 25
15 30 -3 4 -1 19 4 32 7 18 6 25 -4 25 -7 0 -11 -7 -8 -16 4 -14 4 -14 -6 -1
-6 8 -8 24 -5 35 4 16 1 14 -11 -5 -14 -22 -15 -22 -10 -3 3 12 1 24 -5 28
-14 9 25 82 45 82 10 0 14 -6 10 -16 -4 -13 -2 -12 9 2 7 9 16 17 19 17 4 0 4
-8 1 -17 -5 -15 -4 -15 4 -3 6 8 7 21 3 28 -10 17 -2 54 9 47 4 -2 7 12 6 32
-1 31 -5 38 -28 44 -19 5 -28 3 -32 -8 -4 -11 -1 -13 14 -8 21 7 25 -1 11 -24
-6 -9 -11 -10 -15 -2 -11 18 -20 13 -34 -19 -14 -31 -53 -80 -112 -140 l-34
-35 -11 45 c-5 25 -15 54 -21 65 -6 11 -9 25 -7 32 4 11 -14 28 -31 28 -5 0
-20 19 -32 43 -19 36 -21 48 -12 70 6 15 11 41 11 57 -1 17 3 35 7 40 10 13
12 142 3 148 -5 3 -20 -23 -34 -56z m325 -312 c-4 -8 -11 -12 -16 -9 -6 4 -5
10 3 15 19 12 19 11 13 -6z m-63 -202 c-11 -5 -11 -7 0 -14 12 -7 12 -10 0
-21 -10 -10 -12 -10 -7 0 4 6 2 12 -3 12 -6 0 -11 -5 -11 -12 0 -6 -3 -9 -6
-6 -9 9 15 48 29 47 8 0 7 -2 -2 -6z m-125 -209 c-4 -18 -16 -38 -26 -44 -18
-10 -20 -7 -20 31 0 50 27 91 43 64 5 -9 6 -32 3 -51z"/>
</g>
</svg>
