<?xml version="1.0" standalone="no"?>
<!DOCTYPE svg PUBLIC "-//W3C//DTD SVG 20010904//EN"
 "http://www.w3.org/TR/2001/REC-SVG-20010904/DTD/svg10.dtd">
<svg version="1.0" xmlns="http://www.w3.org/2000/svg"
 width="685.000000pt" height="1100.000000pt" viewBox="0 0 685.000000 1100.000000"
 preserveAspectRatio="xMidYMid meet">

<g transform="translate(0.000000,1100.000000) scale(0.100000,-0.100000)"
fill="#000000" stroke="none">
<path d="M3300 9930 c-36 -4 -94 -15 -130 -24 -35 -10 -100 -24 -144 -32 -61
-10 -110 -29 -216 -83 -75 -38 -167 -78 -203 -90 -99 -30 -117 -42 -207 -138
-70 -75 -90 -106 -141 -211 -32 -67 -76 -173 -96 -235 -33 -98 -38 -124 -38
-207 0 -156 30 -364 64 -450 30 -74 53 -151 74 -242 13 -57 -3 -98 -39 -98
-31 0 -81 -60 -89 -109 -9 -54 4 -178 17 -160 7 10 8 4 4 -18 -3 -18 -1 -35 4
-38 6 -3 10 -27 11 -53 0 -53 33 -181 74 -289 25 -67 30 -73 56 -73 15 0 30 4
33 9 10 16 85 18 91 3 9 -23 6 -92 -5 -112 -8 -15 -6 -20 10 -25 11 -3 22 -16
25 -28 2 -12 9 -45 14 -74 6 -28 34 -114 63 -190 l52 -138 4 -193 c3 -178 2
-196 -17 -235 -45 -94 -64 -170 -65 -267 -1 -106 5 -123 103 -260 25 -36 55
-83 66 -105 26 -51 102 -126 185 -181 36 -24 99 -76 140 -115 116 -109 135
-122 167 -114 33 8 46 25 31 42 -7 9 -7 13 1 13 6 0 11 5 11 10 0 6 -4 10 -10
10 -5 0 -18 6 -27 14 -10 8 -58 47 -108 87 -179 145 -383 368 -427 467 -18 41
-19 49 -4 235 14 172 25 333 26 363 0 6 11 16 25 22 21 10 25 9 25 -4 0 -8 5
-12 10 -9 6 3 10 0 10 -7 0 -7 12 -19 28 -26 15 -6 43 -25 62 -42 19 -16 40
-34 47 -40 7 -5 17 -10 23 -10 6 0 9 -4 6 -9 -3 -5 2 -11 12 -15 9 -3 53 -26
97 -50 44 -25 89 -45 101 -46 11 0 26 -6 32 -12 7 -7 54 -16 105 -20 51 -4
131 -10 179 -14 49 -3 99 -2 115 3 55 19 103 -17 94 -69 -1 -7 14 -12 30 -10
4 1 9 -8 12 -18 3 -11 1 -20 -4 -20 -6 0 -1 -10 10 -22 11 -11 18 -26 15 -32
-3 -6 1 -3 9 6 13 16 15 16 26 -8 6 -14 16 -22 21 -19 6 3 10 1 10 -4 0 -15
37 -14 44 2 4 6 4 2 2 -10 -3 -17 0 -21 16 -18 31 6 52 27 36 36 -8 5 -4 10
14 14 25 6 81 55 63 55 -5 0 9 15 30 34 41 37 80 54 72 32 -4 -9 4 -12 23 -11
26 2 28 -1 27 -34 0 -20 -7 -44 -15 -53 -8 -10 -10 -18 -5 -18 13 0 11 -43 -2
-52 -6 -5 -6 -8 2 -8 12 0 12 -67 0 -88 -5 -6 -4 -12 2 -12 5 0 8 -15 6 -32
-3 -24 -2 -29 5 -18 8 13 10 13 10 -1 0 -9 -8 -27 -17 -40 -10 -13 -22 -31
-28 -40 -42 -67 -134 -188 -205 -271 -54 -63 -94 -120 -111 -159 -26 -60 -26
-62 -11 -122 15 -62 62 -147 99 -179 18 -17 20 -16 38 15 10 17 40 62 66 99
40 55 46 68 34 78 -11 9 -13 29 -9 78 10 131 15 149 66 238 28 49 59 114 70
144 10 30 44 92 76 138 130 190 126 178 107 332 -6 41 -10 174 -9 295 l0 220
32 62 c30 59 55 122 79 203 6 19 25 82 43 140 17 58 33 111 35 118 3 6 11 12
20 12 12 0 14 4 5 19 -28 54 7 91 83 87 58 -3 69 -16 32 -40 -14 -9 -25 -22
-25 -28 0 -24 62 49 104 122 95 165 153 382 141 525 -12 136 -58 208 -135 208
-25 0 -44 5 -47 12 -2 7 7 60 21 117 28 114 41 198 51 333 4 50 18 124 31 166
81 259 0 699 -161 877 -75 83 -196 133 -355 147 -47 4 -130 16 -185 27 -174
35 -276 48 -410 53 -71 3 -157 7 -190 8 -33 2 -89 0 -125 -3z m622 -1000 c18
-18 28 -38 26 -48 -4 -14 1 -17 21 -16 15 0 32 -7 39 -18 7 -10 20 -18 28 -18
17 0 18 -12 2 -28 -9 -9 -9 -15 0 -24 7 -7 8 -17 2 -29 -6 -10 -6 -20 -1 -23
8 -6 7 -39 -3 -96 -13 -67 -20 -80 -47 -80 -21 0 -26 -16 -6 -23 6 -3 2 -6
-10 -6 -13 -1 -23 5 -24 12 0 6 -4 2 -9 -10 -8 -19 -17 -23 -56 -23 -30 0 -54
-6 -66 -17 -11 -9 -18 -11 -18 -5 0 18 -42 14 -69 -5 -14 -9 -21 -11 -17 -5 3
6 1 14 -5 17 -11 7 -46 -34 -41 -48 1 -5 -8 -1 -20 7 -28 20 -38 20 -38 1 0
-8 -8 -15 -17 -14 -11 0 -13 3 -5 6 6 2 12 10 12 16 0 7 -5 5 -14 -3 -14 -16
-31 -84 -18 -76 4 2 4 -30 0 -72 -13 -117 -15 -133 -31 -191 -10 -40 -11 -65
-4 -90 15 -55 14 -204 -1 -209 -18 -6 -15 -17 24 -80 31 -48 46 -62 100 -87
35 -16 66 -37 68 -45 3 -8 3 8 0 35 -3 28 -10 57 -14 66 -14 25 -23 109 -12
109 5 0 7 11 5 25 -7 32 18 56 54 53 16 -1 33 1 39 5 6 3 26 9 45 12 41 7 48
13 29 25 -8 6 -12 10 -7 10 57 1 321 57 283 59 -6 1 -5 6 2 13 7 7 12 20 12
30 0 25 36 23 50 -2 6 -11 7 -20 2 -20 -5 0 -9 -7 -9 -15 0 -8 4 -12 9 -9 4 3
8 -6 8 -20 0 -13 4 -26 8 -28 9 -3 61 -113 61 -125 -1 -3 3 -9 8 -12 18 -13
34 -83 33 -143 -2 -61 -38 -208 -51 -208 -4 0 -15 -22 -24 -50 -9 -27 -26 -57
-38 -65 -12 -9 -21 -18 -19 -20 17 -27 -87 -43 -123 -19 -20 13 -23 11 -39
-22 l-17 -37 -27 25 c-48 44 -184 127 -236 144 -28 9 -55 20 -60 25 -6 5 -21
9 -35 10 -24 0 -25 1 -7 12 10 7 30 21 44 32 l26 19 -30 7 c-16 4 -50 15 -76
25 -35 13 -54 16 -74 9 -44 -16 -42 -35 5 -35 49 0 59 -13 32 -42 -12 -12 -21
-29 -21 -37 0 -9 -12 -27 -25 -40 -14 -13 -25 -29 -25 -35 0 -22 -44 -51 -72
-48 -16 2 -28 7 -28 12 0 17 -52 61 -66 56 -8 -3 -14 1 -14 8 0 18 -21 26 -56
20 -16 -2 -43 -6 -61 -9 -17 -2 -45 -11 -61 -19 -16 -8 -41 -17 -54 -20 -67
-12 -149 -88 -177 -165 -34 -93 -28 -106 46 -102 34 1 52 -5 94 -34 73 -50 80
-48 91 30 2 12 12 21 27 23 19 3 22 0 17 -14 -6 -15 -4 -15 11 -3 10 8 23 20
28 27 11 14 67 19 239 24 120 3 120 3 126 -21 3 -14 11 -26 18 -29 15 -5 16
10 0 26 -21 21 3 33 42 22 19 -6 47 -10 62 -10 17 0 28 -5 28 -14 0 -21 -31
-28 -50 -11 -22 20 -32 19 -28 -2 2 -12 -7 -19 -30 -24 -51 -10 -60 -24 -34
-52 12 -13 22 -32 22 -43 0 -24 -30 -52 -53 -48 -9 1 -17 -1 -17 -5 0 -4 -6
-8 -12 -8 -7 0 -47 -4 -88 -9 -41 -4 -87 -8 -102 -8 -16 1 -28 -4 -28 -11 0
-6 -6 -12 -12 -13 -21 -1 -89 -20 -94 -25 -3 -3 21 -18 53 -33 57 -27 63 -28
248 -30 105 -2 195 -3 202 -3 7 -1 10 -8 6 -16 -3 -10 0 -15 8 -13 10 2 14 -8
14 -35 0 -20 3 -37 7 -37 4 0 0 -9 -10 -21 -18 -22 -60 -44 -76 -40 -5 1 -21
-2 -35 -8 -14 -5 -67 -12 -117 -15 -87 -6 -146 -19 -170 -37 -6 -5 -13 -7 -16
-4 -2 3 -18 1 -36 -4 -17 -5 -32 -6 -34 -1 -2 5 -10 10 -18 12 -8 2 -19 8 -23
13 -5 6 -6 -6 -3 -25 5 -29 4 -31 -4 -12 -5 12 -12 22 -15 22 -4 0 -3 -10 0
-22 6 -20 6 -21 -6 -7 -19 22 -44 30 -56 18 -7 -7 -18 0 -34 18 -15 17 -33 28
-49 27 -15 0 -37 12 -55 30 -16 17 -33 30 -37 28 -5 -1 -8 2 -8 8 0 8 -43 59
-106 126 -11 12 -19 29 -18 38 1 9 -2 14 -7 10 -5 -3 -14 7 -19 21 -9 23 -13
25 -25 15 -13 -11 -14 -10 -10 3 4 8 2 18 -4 22 -6 3 -11 2 -11 -3 0 -6 -9 -8
-20 -5 -11 3 -20 11 -20 18 0 7 -20 31 -45 53 -25 22 -45 45 -45 51 0 7 -4 9
-10 6 -6 -3 -10 4 -10 17 0 18 -2 20 -9 9 -8 -12 -11 -9 -16 12 -4 15 -11 27
-15 27 -4 0 -11 15 -14 33 -4 17 -8 39 -9 47 -2 8 -8 31 -14 50 -6 19 -11 89
-11 155 0 66 -5 139 -11 163 -22 79 -26 168 -16 307 4 44 7 90 8 103 1 12 5
22 8 22 4 0 9 23 13 50 4 28 10 50 14 50 4 0 13 14 19 31 7 17 17 28 22 24 6
-3 11 -1 11 4 0 20 25 11 64 -24 21 -19 47 -35 57 -35 11 0 24 -11 30 -24 11
-24 57 -52 68 -41 3 3 1 9 -5 13 -6 4 -19 23 -29 42 l-18 34 44 38 c24 21 49
38 54 38 6 0 11 -14 12 -32 6 -77 101 -111 150 -53 20 23 24 36 20 66 l-5 36
30 -11 c17 -6 45 -28 64 -49 19 -20 34 -32 34 -26 0 6 7 9 14 6 9 -4 17 2 21
14 4 11 14 18 23 17 13 -2 18 6 20 41 2 23 -1 56 -7 71 -5 16 -7 31 -3 34 14
15 13 94 -2 109 -8 8 -12 18 -8 22 4 5 -1 5 -10 2 -10 -3 -20 -2 -23 3 -3 4 0
10 7 12 6 2 -15 10 -48 17 -32 7 -67 17 -76 22 -10 6 -18 6 -18 1 0 -5 -15 -7
-32 -5 -23 3 -29 2 -19 -5 9 -7 -9 -9 -57 -8 -38 0 -65 4 -59 8 29 18 -131 45
-163 28 -17 -9 -102 -15 -147 -11 -7 0 -13 10 -13 21 0 11 -4 20 -10 20 -13 0
-7 37 8 52 7 7 12 18 12 25 0 7 5 13 11 13 6 0 8 9 4 20 -4 12 -2 20 5 20 6 0
8 5 4 12 -5 7 -2 9 7 6 8 -3 23 0 34 8 14 10 15 14 4 14 -8 0 4 17 26 37 22
20 39 39 38 43 -1 4 48 7 110 8 62 1 123 4 137 8 14 3 41 7 60 10 19 2 48 6
63 9 20 3 26 1 21 -8 -5 -8 -2 -7 9 2 11 9 52 15 121 17 57 2 111 7 120 10 9
4 20 4 23 0 4 -3 13 0 22 8 9 8 36 16 61 19 95 10 121 15 133 25 25 21 111 44
153 40 23 -1 40 0 38 3 -6 11 22 18 44 12 11 -3 29 0 39 6 27 15 32 14 65 -19z
m-1232 -530 c0 -5 -2 -10 -4 -10 -3 0 -8 5 -11 10 -3 6 -1 10 4 10 6 0 11 -4
11 -10z m56 -25 c16 -8 40 -15 54 -15 14 -1 39 -7 55 -14 l30 -13 -25 -11
c-14 -6 -47 -19 -74 -28 -27 -10 -71 -35 -97 -56 -27 -21 -53 -38 -58 -38 -5
0 -9 12 -8 28 0 15 -3 35 -8 45 -5 13 -4 16 9 11 9 -3 16 -2 16 4 0 6 -6 13
-12 15 -7 3 -2 6 12 7 23 1 23 2 5 10 -18 8 -18 9 5 10 l25 0 -25 20 -25 20
38 0 c20 0 37 5 37 10 0 14 13 13 46 -5z m108 -127 c-5 -8 2 -9 24 -5 19 4 32
2 32 -3 0 -6 -9 -10 -20 -10 -12 0 -32 -7 -45 -16 -32 -21 -84 -11 -64 12 10
13 14 12 33 -3 12 -10 15 -11 9 -3 -17 19 -16 28 5 33 30 8 33 7 26 -5z m236
-33 c12 -13 8 -13 -33 1 -26 9 -47 18 -47 21 0 11 65 -8 80 -22z m730 -61 c0
-28 8 -44 34 -70 34 -34 34 -34 9 -34 -14 0 -41 7 -60 17 -33 15 -35 19 -30
55 9 68 47 94 47 32z m256 -39 c-2 -5 -9 -9 -15 -7 -6 1 -11 -5 -11 -13 0 -8
-12 -22 -27 -32 -16 -10 -32 -23 -36 -30 -11 -18 -64 -16 -71 2 -3 10 6 20 28
30 36 17 56 50 56 91 l0 25 40 -28 c22 -15 38 -32 36 -38z m-1156 51 c0 -3 -4
-8 -10 -11 -5 -3 -10 -1 -10 4 0 6 5 11 10 11 6 0 10 -2 10 -4z m80 -6 c0 -5
-4 -10 -10 -10 -5 0 -10 5 -10 10 0 6 5 10 10 10 6 0 10 -4 10 -10z m860 1 c0
-6 -4 -13 -10 -16 -5 -3 -10 1 -10 9 0 9 5 16 10 16 6 0 10 -4 10 -9z m80 -7
c0 -8 -4 -12 -10 -9 -5 3 -10 10 -10 16 0 5 5 9 10 9 6 0 10 -7 10 -16z m670
-78 c-32 -52 -80 -83 -80 -52 0 16 89 101 97 92 3 -3 -5 -21 -17 -40z m-916
-1 c3 -8 1 -15 -4 -15 -6 0 -10 7 -10 15 0 8 2 15 4 15 2 0 6 -7 10 -15z m26
5 c0 -5 -2 -10 -4 -10 -3 0 -8 5 -11 10 -3 6 -1 10 4 10 6 0 11 -4 11 -10z
m959 -27 c6 -21 11 -51 11 -68 0 -16 9 -59 20 -93 39 -125 18 -242 -51 -278
-44 -22 -47 -10 -6 25 64 57 75 175 22 231 -15 15 -47 33 -71 40 -25 7 -46 16
-48 19 -4 5 47 115 67 149 17 26 46 13 56 -25z m-2408 -1 c13 -10 38 -25 54
-32 46 -20 68 -55 60 -96 -3 -19 -13 -38 -21 -41 -7 -3 -14 -11 -14 -17 0 -7
-25 -20 -56 -30 -62 -19 -74 -38 -74 -110 0 -75 12 -108 52 -148 34 -34 50
-68 31 -68 -23 0 -83 72 -94 111 -15 55 -15 151 1 208 6 25 11 65 11 90 0 25
7 60 16 78 14 27 15 34 3 48 -9 10 -22 14 -37 10 -13 -3 -23 -1 -23 5 0 17 66
11 91 -8z m1407 -17 c-3 -3 -9 2 -12 12 -6 14 -5 15 5 6 7 -7 10 -15 7 -18z
m43 -16 c23 -23 17 -39 -9 -23 -16 11 -30 44 -18 44 3 0 15 -9 27 -21z m1016
-76 c-4 -17 -4 -17 -12 0 -4 9 -4 25 0 35 8 16 8 16 12 0 3 -10 3 -26 0 -35z
m-151 -140 c30 -67 33 -81 23 -104 -14 -36 -39 -58 -77 -68 -26 -8 -32 -6 -37
9 -3 11 -1 28 4 39 6 11 11 57 11 104 0 46 3 87 7 90 18 19 37 0 69 -70z
m-2182 -99 c3 -26 2 -52 -3 -58 -6 -7 -6 -18 -2 -25 10 -15 3 -51 -9 -51 -5 0
-20 14 -34 31 -32 38 -34 86 -5 123 30 39 45 33 53 -20z m2156 -159 c0 -15
-35 -20 -64 -9 -25 10 -8 24 30 24 24 0 34 -5 34 -15z m-2157 -61 c4 -24 2
-41 -8 -50 -19 -20 -28 -17 -22 7 4 15 -1 22 -18 29 -49 19 -43 50 9 50 31 0
34 -3 39 -36z m991 -210 c46 -15 56 -15 103 -1 43 13 59 13 100 3 l48 -13 -58
-5 c-33 -3 -62 -9 -65 -14 -4 -5 -32 -10 -62 -12 -30 -2 -57 -8 -61 -14 -4 -6
-35 -9 -75 -8 -161 6 -195 4 -205 -11 -5 -8 -9 -9 -9 -2 0 15 57 63 78 64 39
3 79 9 107 18 42 13 42 13 99 -5z m176 -39 c0 -8 -4 -15 -10 -15 -5 0 -7 7 -4
15 4 8 8 15 10 15 2 0 4 -7 4 -15z m-37 -22 c-7 -2 -19 -2 -25 0 -7 3 -2 5 12
5 14 0 19 -2 13 -5z m-435 -25 c-6 -18 -28 -21 -28 -4 0 9 7 16 16 16 9 0 14
-5 12 -12z m649 -1015 c-4 -3 -2 -12 4 -19 6 -7 6 -14 1 -18 -6 -3 -13 1 -16
10 -6 16 0 34 11 34 4 0 3 -3 0 -7z m103 -57 c0 -2 -7 -7 -16 -10 -8 -3 -12
-2 -9 4 6 10 25 14 25 6z"/>
<path d="M3103 8069 c-18 -5 -33 -13 -33 -18 0 -10 80 2 105 17 18 10 18 11
-10 11 -16 -1 -45 -5 -62 -10z"/>
<path d="M3040 8033 c0 -14 -2 -15 -9 -4 -7 11 -20 12 -77 2 -107 -18 -113
-19 -117 -8 -2 7 -5 8 -10 1 -9 -16 6 -32 36 -38 14 -2 32 -8 38 -11 24 -15
132 -5 175 16 53 25 56 39 8 39 -21 0 -33 4 -29 10 3 6 1 10 -4 10 -6 0 -11
-8 -11 -17z"/>
<path d="M3255 7548 c-38 -20 -85 -53 -85 -59 0 -11 51 -29 85 -29 28 0 32 3
28 20 -4 14 2 22 21 30 31 11 33 25 7 40 -24 12 -31 12 -56 -2z"/>
<path d="M3471 7501 c-7 -5 -26 -7 -41 -5 -16 2 -31 0 -34 -5 -3 -5 -17 -6
-31 -3 -14 2 -25 0 -25 -6 0 -6 25 -16 56 -22 55 -12 105 -3 119 21 8 12 -29
29 -44 20z"/>
<path d="M2950 5342 c-44 -14 -69 -75 -35 -88 8 -4 15 -15 15 -25 0 -22 45
-37 69 -22 19 12 27 84 12 111 -11 21 -37 31 -61 24z"/>
<path d="M3600 5056 c-14 -14 -12 -33 3 -40 8 -4 7 -5 -3 -5 -8 1 -20 1 -26 0
-14 -1 -11 -44 5 -49 6 -2 10 2 9 9 -2 7 6 13 17 14 13 0 19 6 19 18 -1 10 0
16 3 13 7 -7 27 14 36 37 5 14 1 17 -23 15 -17 -1 -35 -7 -40 -12z"/>
<path d="M3648 4823 c-19 -21 -38 -47 -40 -59 -6 -22 7 -54 21 -54 9 0 56 106
56 125 0 6 5 13 10 17 7 5 6 8 0 8 -6 0 -27 -17 -47 -37z"/>
<path d="M5361 4590 c0 -8 4 -24 9 -35 5 -13 9 -14 9 -5 0 8 -4 24 -9 35 -5
13 -9 14 -9 5z"/>
<path d="M3643 4557 c-20 -30 -27 -54 -24 -85 2 -22 54 -10 67 16 12 24 5 94
-11 99 -6 1 -20 -12 -32 -30z"/>
<path d="M3470 4185 c0 -22 -9 -94 -20 -160 -11 -66 -23 -190 -26 -275 -5
-136 -12 -221 -28 -310 -3 -14 -8 -52 -11 -84 -3 -33 -8 -63 -10 -66 -2 -4 0
-24 6 -45 10 -37 11 -37 26 -15 8 11 13 30 10 42 -3 11 -1 32 4 46 5 14 12 50
15 81 4 31 8 72 10 91 14 130 23 231 28 340 4 69 11 178 17 244 10 104 9 120
-5 134 -15 15 -16 13 -16 -23z"/>
<path d="M1378 4179 c-2 -14 1 -43 8 -65 l12 -39 0 45 c0 25 -3 54 -7 65 -7
18 -8 17 -13 -6z"/>
<path d="M1391 3964 c0 -11 3 -14 6 -6 3 7 2 16 -1 19 -3 4 -6 -2 -5 -13z"/>
<path d="M1391 3861 c-1 -48 -4 -62 -14 -58 -23 9 -8 -44 21 -75 22 -25 24
-32 18 -85 -6 -53 14 -245 30 -286 7 -19 73 -71 81 -64 3 3 0 45 -7 94 -10 79
-35 145 -62 164 -4 3 -12 40 -18 82 -5 43 -15 87 -21 98 -6 12 -14 60 -19 108
-7 85 -7 85 -9 22z"/>
<path d="M5543 3803 c-10 -14 -14 -15 -21 -5 -7 10 -13 4 -26 -22 -31 -66 -46
-118 -40 -142 l6 -23 39 22 c39 22 53 42 22 30 -16 -6 -17 -5 -3 12 14 17 13
18 -12 11 -40 -9 -36 13 12 69 22 25 40 50 40 56 0 13 -3 11 -17 -8z"/>
<path d="M5540 3530 c-24 -28 -50 -39 -50 -22 0 5 -6 17 -14 28 -13 17 -14 15
-6 -19 4 -21 14 -44 20 -52 10 -12 10 -25 1 -61 -19 -76 -38 -205 -40 -274 -1
-36 -5 -74 -8 -85 -7 -26 -94 -209 -102 -215 -16 -13 -31 -83 -31 -147 0 -39
-7 -90 -15 -113 -8 -23 -15 -64 -15 -91 0 -37 -5 -54 -20 -66 -11 -10 -20 -22
-20 -29 0 -6 -9 -19 -20 -29 -11 -10 -20 -24 -20 -31 0 -7 -9 -18 -20 -24 -11
-6 -20 -15 -20 -21 0 -6 -8 -23 -18 -37 -10 -15 -26 -53 -35 -84 -10 -32 -29
-71 -43 -88 -26 -30 -26 -31 -10 -70 9 -22 16 -43 17 -48 1 -4 6 -18 11 -32
26 -67 22 -96 -27 -198 l-47 -99 15 -44 c38 -113 30 -170 -33 -242 -43 -49
-80 -134 -63 -146 18 -11 33 -49 33 -85 0 -32 20 -66 40 -66 11 0 30 -57 30
-93 0 -45 11 -26 63 101 94 229 99 367 25 619 l-30 103 48 87 c26 49 81 140
122 203 41 63 101 164 132 224 37 70 65 112 79 117 14 6 21 4 21 -3 0 -8 3 -8
9 -3 5 6 11 51 13 101 2 72 7 96 21 112 l19 21 -54 -13 c-80 -18 -137 8 -81
38 16 7 37 24 47 35 18 20 19 27 7 99 -16 100 3 205 60 327 28 62 50 118 46
121 -2 2 -20 -19 -41 -46 -21 -28 -40 -50 -43 -50 -3 0 -4 19 -2 43 1 23 -1
55 -6 71 -5 17 -4 31 2 35 11 6 39 82 69 186 9 33 19 66 22 73 8 22 -13 13
-38 -18z"/>
<path d="M5430 3455 c0 -18 4 -23 15 -19 8 4 15 12 15 19 0 7 -7 15 -15 19
-11 4 -15 -1 -15 -19z"/>
<path d="M3566 3388 c4 -7 3 -8 -5 -4 -20 13 -41 -14 -41 -53 0 -46 16 -68 57
-80 35 -10 47 1 32 31 -11 21 7 34 25 19 10 -9 15 -8 20 5 11 29 6 54 -14 74
-22 22 -87 29 -74 8z"/>
<path d="M1499 3197 c-20 -48 -28 -86 -32 -166 -6 -98 -5 -106 20 -150 57
-103 69 -197 38 -305 -19 -64 -17 -92 15 -214 20 -79 20 -86 5 -137 -8 -30
-25 -71 -37 -91 -17 -29 -22 -55 -24 -128 -1 -50 -7 -107 -13 -126 -11 -32 -7
-189 5 -247 2 -13 19 -39 37 -59 31 -36 32 -39 29 -122 -1 -47 -9 -105 -17
-129 -15 -44 -15 -45 20 -104 43 -73 47 -131 13 -174 l-22 -28 21 -38 c20 -36
21 -79 2 -79 -4 0 -6 -9 -4 -21 3 -17 0 -20 -15 -16 -33 8 -23 -9 15 -27 19
-9 35 -21 35 -26 0 -12 58 -19 210 -25 74 -3 176 -8 225 -12 172 -13 393 -2
508 24 55 13 101 15 230 10 162 -7 191 -9 280 -27 61 -13 177 -13 197 0 21 13
6 25 -70 51 -59 20 -89 22 -330 27 -152 2 -268 8 -271 14 -6 9 -52 14 -74 8
-15 -5 -48 11 -66 32 -20 22 -29 23 -29 3 0 -24 -29 -17 -42 10 -13 30 -33 34
-25 5 4 -17 0 -20 -31 -20 -21 0 -45 7 -56 15 -13 10 -24 11 -36 5 -13 -7 -22
-4 -35 10 -16 18 -19 18 -30 4 -15 -21 -59 -10 -51 12 4 11 1 12 -12 5 -23
-12 -34 -12 -51 2 -7 7 -19 12 -25 12 -6 1 -24 4 -41 9 -16 4 -49 12 -72 18
-24 6 -43 16 -43 22 0 8 -2 8 -8 0 -10 -16 -49 -11 -73 9 -11 10 -24 15 -29
12 -5 -3 -9 10 -7 29 1 19 -1 34 -4 33 -12 -4 -50 37 -45 48 2 7 -9 25 -24 42
-40 43 -71 112 -72 164 -1 24 -5 46 -9 49 -4 3 -9 19 -11 35 -3 26 0 30 20 28
23 -3 23 -3 18 96 -6 105 5 141 38 128 17 -7 22 -37 7 -52 -4 -6 -13 -25 -19
-43 -9 -27 -8 -42 5 -75 21 -54 23 -55 34 -34 10 17 12 16 30 -7 10 -13 19
-29 19 -35 0 -21 19 -11 22 12 3 17 6 14 12 -15 11 -52 36 -51 36 2 0 31 3 38
15 34 22 -9 18 19 -5 34 -11 7 -20 19 -20 28 0 9 9 18 20 21 11 3 20 11 20 18
0 7 7 15 15 19 10 4 18 -6 26 -34 7 -22 16 -40 20 -40 15 0 41 -62 35 -84 -3
-11 -1 -28 4 -36 6 -9 10 -10 10 -3 0 6 7 19 17 28 12 13 13 19 4 24 -7 4 -19
32 -27 62 -21 77 -22 81 -24 109 -1 23 -2 23 -14 8 -15 -21 -36 -6 -36 27 0
11 -10 26 -22 34 -20 13 -21 14 -4 26 9 7 17 16 17 19 0 3 2 12 5 20 3 8 -1
27 -9 43 -21 41 -29 81 -17 88 6 4 7 -1 3 -12 -3 -10 -2 -14 3 -10 4 4 10 29
11 55 2 25 11 54 19 63 21 23 10 119 -17 153 -11 13 -19 30 -19 38 0 7 -8 18
-19 25 -10 6 -22 28 -25 48 -5 25 -15 39 -32 47 -13 6 -24 15 -24 21 0 5 -7 7
-15 3 -13 -5 -15 2 -10 42 8 71 10 79 25 97 8 9 14 33 13 53 0 26 2 31 6 18 5
-14 10 -16 15 -8 4 7 5 16 2 21 -4 5 2 7 13 4 11 -3 21 2 24 11 4 10 1 16 -8
16 -18 0 -18 2 -3 35 7 15 17 24 25 21 7 -3 13 -1 13 4 0 6 -5 10 -11 10 -7 0
-8 16 -3 45 4 29 3 45 -4 45 -6 0 -13 -10 -15 -22 l-4 -23 -2 23 c0 12 -8 25
-16 28 -20 8 -18 24 4 52 19 21 38 31 26 13 -3 -5 -1 -12 4 -16 5 -3 14 3 20
12 8 13 10 14 11 4 0 -10 3 -11 9 -5 12 12 23 126 13 140 -12 18 -52 24 -52 8
0 -8 6 -11 17 -7 13 5 15 2 10 -11 -4 -10 -7 -20 -7 -23 0 -3 -6 0 -14 6 -11
9 -18 4 -37 -26 -12 -21 -33 -49 -46 -63 -12 -14 -40 -45 -62 -70 l-39 -45 -8
50 c-4 28 -13 60 -21 72 -8 12 -14 24 -14 27 3 20 -2 28 -25 36 -14 6 -23 14
-20 19 3 5 -3 20 -14 34 -17 22 -18 30 -9 54 7 15 12 42 12 58 -1 17 3 35 7
40 10 13 12 142 3 148 -5 3 -20 -23 -34 -56z m135 -722 c-2 -16 -12 -36 -21
-43 -16 -12 -19 -9 -25 25 -5 31 -2 42 15 61 20 21 22 22 28 5 4 -10 5 -31 3
-48z m61 -735 c-3 -5 -13 -10 -21 -10 -8 0 -12 5 -9 10 3 6 13 10 21 10 8 0
12 -4 9 -10z m28 -80 c21 -25 22 -40 2 -40 -8 0 -15 9 -15 20 0 11 -4 20 -10
20 -5 0 -10 5 -10 10 0 16 14 12 33 -10z"/>
<path d="M1806 2605 c-3 -8 -1 -15 4 -15 6 0 10 7 10 15 0 8 -2 15 -4 15 -2 0
-6 -7 -10 -15z"/>
<path d="M3591 1896 c-7 -8 -11 -36 -9 -62 3 -41 7 -51 31 -64 24 -13 30 -13
55 1 17 9 27 23 26 37 0 11 3 19 8 16 14 -9 9 41 -8 64 -18 26 -84 31 -103 8z"/>
<path d="M1882 1680 c0 -14 2 -19 5 -12 2 6 2 18 0 25 -3 6 -5 1 -5 -13z"/>
<path d="M910 1537 c3 -3 39 -8 80 -12 41 -3 89 -8 105 -10 104 -11 142 -17
159 -22 11 -3 16 -1 12 5 -3 5 -34 15 -68 21 -72 12 -296 26 -288 18z"/>
<path d="M1287 1489 c5 -5 24 -14 43 -19 43 -12 30 0 -16 16 -20 7 -32 8 -27
3z"/>
<path d="M1840 1485 c0 -8 7 -15 15 -15 9 0 19 -9 23 -20 7 -20 7 -20 20 0 10
17 8 21 -18 35 -36 19 -40 19 -40 0z"/>
<path d="M5815 1458 c-26 -15 -98 -88 -92 -94 8 -8 81 37 104 64 34 41 29 53
-12 30z"/>
<path d="M6650 1463 c0 -5 33 -7 72 -5 125 4 137 9 31 10 -57 1 -103 -1 -103
-5z"/>
<path d="M2240 1390 c0 -5 5 -10 10 -10 6 0 10 5 10 10 0 6 -4 10 -10 10 -5 0
-10 -4 -10 -10z"/>
<path d="M1240 1369 c53 -23 66 -29 83 -39 9 -5 25 -14 34 -19 10 -4 22 -24
28 -44 5 -19 13 -38 16 -42 10 -9 59 16 59 31 0 21 -55 60 -122 86 -66 26
-149 49 -98 27z"/>
<path d="M4532 1163 c-24 -8 -42 -17 -40 -19 7 -6 88 19 88 27 0 5 -1 9 -2 8
-2 0 -22 -7 -46 -16z"/>
<path d="M1028 1153 c7 -3 16 -2 19 1 4 3 -2 6 -13 5 -11 0 -14 -3 -6 -6z"/>
<path d="M1098 1143 c6 -2 18 -2 25 0 6 3 1 5 -13 5 -14 0 -19 -2 -12 -5z"/>
<path d="M1165 1128 c17 -6 37 -16 45 -24 8 -7 29 -15 45 -18 20 -4 10 4 -30
24 -33 16 -67 30 -75 29 -8 0 -1 -5 15 -11z"/>
<path d="M4375 1119 c-33 -11 -163 -35 -290 -54 -179 -27 -252 -43 -330 -71
-55 -19 -122 -40 -150 -44 -27 -5 -60 -12 -72 -16 -17 -5 -23 -2 -23 9 0 8 7
17 15 21 29 11 15 24 -17 16 -56 -13 -92 -30 -120 -58 -34 -31 -37 -48 -5 -28
25 17 108 48 114 43 2 -2 -8 -16 -22 -32 -15 -15 -25 -29 -23 -31 5 -4 145 43
193 66 22 10 58 21 80 23 22 3 58 10 81 16 22 6 96 17 165 25 69 8 174 29 235
47 194 56 229 66 254 77 l25 11 -25 -1 c-14 0 -52 -9 -85 -19z"/>
<path d="M5760 1061 c0 -5 -11 -12 -25 -15 -40 -10 -33 -46 15 -79 33 -23 40
-21 40 6 0 12 7 33 17 46 15 23 15 25 -2 37 -21 16 -45 18 -45 5z"/>
<path d="M3339 838 c-6 -13 -21 -33 -32 -45 -18 -21 -19 -25 -6 -49 7 -15 20
-29 29 -32 8 -3 30 -17 48 -30 39 -30 41 -20 6 32 -20 30 -27 52 -28 93 0 29
-1 53 -3 53 -1 0 -8 -10 -14 -22z"/>
<path d="M235 750 c-21 -22 -34 -40 -29 -40 6 0 25 18 43 40 17 22 30 40 29
40 -2 0 -22 -18 -43 -40z"/>
<path d="M4856 741 c-20 -16 -36 -33 -34 -38 2 -4 25 -15 51 -24 64 -22 75
-33 53 -57 -17 -19 -215 -90 -311 -111 -46 -11 -134 -9 -152 2 -8 5 -103 -9
-131 -18 -7 -3 -14 -5 -17 -5 -3 0 -24 -7 -46 -16 -51 -17 -215 -32 -321 -28
-43 2 -78 -1 -78 -6 0 -10 -225 -4 -242 6 -11 7 -128 -27 -128 -37 0 -21 267
-35 287 -16 3 4 51 7 106 7 97 0 121 3 315 35 55 10 111 13 137 9 56 -8 92 1
99 24 5 14 14 17 37 14 49 -7 239 18 292 39 55 22 120 25 135 7 6 -7 13 -29
17 -49 8 -41 -4 -55 -50 -61 l-30 -4 28 -12 c24 -10 26 -15 17 -32 -6 -11 -19
-24 -30 -30 -10 -5 -21 -18 -24 -28 -9 -26 20 -79 55 -99 60 -36 19 -65 -52
-36 -31 12 -71 17 -134 17 -49 -1 -178 -2 -285 -2 -197 -2 -229 0 -275 18 -14
5 -25 6 -25 2 0 -4 -4 -1 -8 6 -5 7 -28 14 -53 16 -69 6 -131 16 -164 26 -16
5 -43 11 -60 14 -16 2 -30 5 -30 6 0 1 -13 3 -30 5 -69 6 -127 16 -153 27 -15
6 -30 11 -34 10 -5 -1 -8 1 -8 6 0 12 -88 14 -111 1 -15 -8 -24 -8 -32 0 -8 8
-6 11 5 11 44 0 65 70 28 90 -31 17 -13 33 29 26 28 -4 42 -1 63 17 24 20 26
26 19 75 -12 83 -31 90 -31 11 0 -62 -2 -67 -27 -78 -23 -11 -78 -13 -188 -9
-5 0 -46 -9 -90 -20 -44 -11 -123 -25 -175 -31 -52 -6 -117 -16 -145 -21 -59
-11 -121 -17 -270 -25 -91 -6 -123 -3 -185 13 -49 12 -102 18 -152 17 -52 -2
-78 2 -78 9 0 8 -2 8 -8 0 -8 -12 -42 -15 -42 -3 0 4 -14 3 -30 -3 -22 -7 -34
-7 -44 1 -7 6 -16 8 -19 4 -4 -3 -7 -1 -7 7 0 8 -4 9 -12 3 -7 -6 -23 -9 -35
-8 -27 2 -28 -4 -8 -30 9 -11 36 -54 60 -96 25 -41 67 -100 95 -130 27 -30 62
-78 77 -107 l28 -52 280 2 c255 3 280 4 277 20 -1 9 2 19 7 22 10 7 81 -23 81
-34 0 -3 61 -7 136 -9 131 -2 202 9 189 29 -9 15 50 70 85 80 51 15 157 15
175 0 8 -6 17 -28 21 -49 8 -45 21 -61 46 -61 18 0 20 5 14 32 -9 45 -55 120
-78 126 -12 3 -17 10 -14 19 3 8 6 23 6 33 0 25 50 35 96 20 25 -9 34 -16 29
-27 -5 -13 -3 -14 10 -3 13 11 16 11 13 0 -3 -15 14 -19 192 -46 281 -42 366
-51 605 -59 145 -6 289 -20 233 -24 -11 -1 -18 -9 -18 -22 0 -21 0 -21 -20 2
-16 20 -19 21 -20 7 0 -10 5 -18 10 -18 6 0 10 -7 10 -16 0 -8 5 -12 10 -9 6
3 10 1 10 -4 0 -15 462 -15 532 0 29 6 71 20 92 30 32 15 42 16 54 6 14 -11
86 -31 160 -44 l34 -5 -7 58 c-4 33 -12 69 -16 82 -5 13 -9 33 -9 44 0 11 -16
53 -36 92 -20 39 -30 65 -23 59 18 -18 28 -16 22 5 -6 23 -36 42 -52 33 -8 -6
-5 -20 13 -52 13 -24 25 -53 26 -64 5 -46 -1 -106 -9 -101 -5 4 -11 1 -13 -6
-3 -7 -15 8 -29 32 -34 62 -77 84 -169 87 -89 2 -107 -2 -115 -28 -9 -27 -25
-24 -25 5 0 13 -9 34 -19 47 -19 24 -19 25 5 79 29 67 30 129 5 179 -24 45
-119 135 -170 159 -26 13 -36 24 -35 40 0 12 0 22 -1 22 -1 0 -19 -13 -39 -29z
m-1510 -345 c2 -11 5 -30 8 -42 6 -24 -1 -29 -64 -38 -19 -3 -57 -9 -85 -14
-27 -5 -57 -10 -65 -10 -40 0 -162 -14 -220 -25 -36 -6 -93 -11 -127 -10 -60
2 -123 24 -123 43 0 14 157 13 162 -1 2 -7 16 -4 38 9 19 11 85 30 145 41 61
12 124 27 140 33 43 15 147 37 169 35 11 -1 20 -11 22 -21z m-421 -217 c4 -6
13 -8 21 -5 8 3 14 2 14 -3 0 -4 18 -16 40 -26 22 -10 46 -25 52 -33 7 -8 30
-26 52 -39 30 -20 48 -24 78 -20 21 3 38 1 38 -4 0 -5 -11 -9 -24 -9 -14 0
-28 -5 -31 -10 -5 -8 -11 -8 -20 0 -7 6 -25 8 -39 4 -19 -4 -28 -2 -32 10 -3
9 -12 16 -20 16 -8 0 -54 17 -104 38 -85 35 -110 57 -95 82 8 13 62 13 70 -1z
m2435 -66 c0 -26 -12 -30 -30 -8 -14 17 -7 32 15 32 9 0 15 -9 15 -24z"/>
<path d="M3060 704 l-75 -13 72 4 c40 2 81 8 90 14 22 13 13 12 -87 -5z"/>
<path d="M334 614 c-4 -10 -13 -26 -20 -34 -19 -23 -30 -74 -14 -68 13 4 53
109 45 117 -3 2 -8 -5 -11 -15z"/>
<path d="M4535 520 c-3 -5 -1 -10 4 -10 6 0 11 5 11 10 0 6 -2 10 -4 10 -3 0
-8 -4 -11 -10z"/>
<path d="M280 471 c0 -17 18 -21 24 -6 3 9 0 15 -9 15 -8 0 -15 -4 -15 -9z"/>
<path d="M5560 420 c6 -11 13 -20 16 -20 2 0 0 9 -6 20 -6 11 -13 20 -16 20
-2 0 0 -9 6 -20z"/>
<path d="M4520 414 c-8 -1 -41 -6 -72 -9 -94 -10 -66 -25 46 -25 57 0 106 -4
108 -9 3 -8 108 35 108 44 0 5 -166 5 -190 -1z"/>
<path d="M6080 171 c-74 -16 -180 -55 -180 -68 0 -7 -3 -12 -7 -11 -9 2 -93
-74 -93 -85 0 -4 194 -7 431 -7 l432 0 -44 34 c-67 50 -181 105 -267 126 -78
20 -203 25 -272 11z"/>
<path d="M5613 130 c0 -25 2 -35 4 -22 2 12 2 32 0 45 -2 12 -4 2 -4 -23z"/>
<path d="M1790 136 c-67 -19 -164 -65 -218 -103 l-47 -33 354 0 c312 0 352 2
341 15 -7 8 -16 12 -21 10 -4 -3 -25 11 -46 32 -21 21 -51 45 -68 52 -91 40
-208 51 -295 27z"/>
<path d="M4060 82 c0 -5 6 -17 14 -27 13 -18 14 -18 9 8 -5 24 -23 39 -23 19z"/>
<path d="M4000 61 c0 -19 17 -38 25 -29 7 7 -7 48 -16 48 -5 0 -9 -9 -9 -19z"/>
<path d="M5622 45 c0 -17 2 -22 5 -12 2 9 2 23 0 30 -3 6 -5 -1 -5 -18z"/>
<path d="M4086 17 c3 -10 9 -15 12 -12 3 3 0 11 -7 18 -10 9 -11 8 -5 -6z"/>
<path d="M4560 13 c-23 -12 -21 -13 30 -11 30 0 44 3 30 5 -14 3 -27 8 -30 12
-3 4 -16 1 -30 -6z"/>
<path d="M5580 21 c0 -6 4 -13 10 -16 6 -3 7 1 4 9 -7 18 -14 21 -14 7z"/>
</g>
</svg>
